<?xml version="1.0" encoding="utf-8"?>
<!-- Generator: Adobe Illustrator 16.0.0, SVG Export Plug-In . SVG Version: 6.00 Build 0)  -->
<!DOCTYPE svg PUBLIC "-//W3C//DTD SVG 1.1//EN" "http://www.w3.org/Graphics/SVG/1.1/DTD/svg11.dtd">
<svg version="1.1" id="Layer_1" xmlns="http://www.w3.org/2000/svg" xmlns:xlink="http://www.w3.org/1999/xlink" x="0px" y="0px"
	 width="86px" height="60px" viewBox="0 0 86 60" enable-background="new 0 0 86 60" xml:space="preserve">
<g>
	<g>
		<g>
			<path fill="#FFFFFF" d="M35.605,48.18H7.575V12.576h28.03c3.76,0,6.818,3.059,6.818,6.818v21.969
				C42.424,45.123,39.365,48.18,35.605,48.18z M10.606,45.15h25c2.089,0,3.789-1.697,3.789-3.787V19.395
				c0-2.088-1.7-3.789-3.789-3.789h-25V45.15z"/>
		</g>
		<g>
			<path fill="#FFFFFF" d="M39.395,55H0V5h39.395C45.242,5,50,9.758,50,15.605v7.576h-3.031v-7.576c0-4.177-3.397-7.575-7.574-7.575
				H3.03v43.94h36.364c4.177,0,7.574-3.398,7.574-7.576V30.76h-12.12v4.544c0,2.507-2.039,4.544-4.546,4.544L19.697,39.85
				c-2.506,0-4.545-2.037-4.545-4.544v-3.032c0-2.508,2.039-4.545,4.545-4.545h12.122v-3.031c0-0.836-0.68-1.516-1.516-1.516H16.667
				v-3.029h13.636c2.507,0,4.546,2.04,4.546,4.545v3.031H50v16.666C50,50.242,45.242,55,39.395,55z M19.697,30.76
				c-0.835,0-1.515,0.678-1.515,1.514v3.032c0,0.835,0.68,1.514,1.515,1.514h10.606c0.836,0,1.516-0.681,1.516-1.516V30.76H19.697z"
				/>
		</g>
	</g>
</g>
</svg>
