<?xml version="1.0" encoding="utf-8"?>
<!-- Generator: Adobe Illustrator 16.0.0, SVG Export Plug-In . SVG Version: 6.00 Build 0)  -->
<!DOCTYPE svg PUBLIC "-//W3C//DTD SVG 1.1//EN" "http://www.w3.org/Graphics/SVG/1.1/DTD/svg11.dtd">
<svg version="1.1" id="Layer_1" xmlns="http://www.w3.org/2000/svg" xmlns:xlink="http://www.w3.org/1999/xlink" x="0px" y="0px"
	 width="86px" height="60px" viewBox="0 0 86 60" enable-background="new 0 0 86 60" xml:space="preserve">
<g>
	<g>
		<path fill="#FFFFFF" d="M42.066,8.473c-11.472,0-21.956,2.373-29.67,6.264C4.747,18.627,0,24.033,0,29.967
			c0,0.922,0.066,1.779,0.264,2.637c1.116,4.592,5.094,8.773,10.999,12.053c7.739,4.229,18.721,6.871,30.738,6.871
			c22.858,0,41.964-9.609,42-21.527C83.965,18.08,64.924,8.473,42.066,8.473z M65.671,15.066c0.726,0,1.318,0.592,1.318,1.318
			c0,0.064,0,0.064,0,0.131c0,0.33-0.132,0.66-0.329,1.121c-0.198,0.396-0.527,0.924-0.989,1.055
			c0.065-0.197,0.132-0.33,0.132-0.527s-0.066-0.395-0.132-0.461c-0.726,0-1.319-0.594-1.319-1.318
			C64.352,15.658,64.945,15.066,65.671,15.066z M61.979,17.176c1.78,0,3.362,1.055,3.362,3.361c0,0.199,0,0.396-0.065,0.594h-5.077
			c0.264,0.791,0.989,1.188,1.78,1.188c0.659,0,1.188-0.264,1.516-0.791h1.781c-0.396,1.582-1.847,2.309-3.297,2.309
			c-1.78,0-3.362-1.057-3.362-3.299C58.616,18.23,60.198,17.176,61.979,17.176z M54.527,15h1.648v2.307h1.253v1.781h-1.253v2.57
			c0,0.264,0,0.396,0.264,0.396h1.847v1.713h-1.648c-0.065,0-0.132,0-0.198,0h-0.197c-1.45,0-1.715-0.525-1.715-1.383V15z
			 M55.979,30.691c0,2.309-1.582,3.363-3.363,3.363c-1.779,0-3.362-1.055-3.362-3.363c0-2.242,1.583-3.297,3.362-3.297
			C54.396,27.395,55.979,28.449,55.979,30.691z M50.638,17.176c1.78,0,3.362,1.055,3.362,3.361c0,0.199,0,0.396-0.065,0.594h-5.077
			c0.264,0.791,0.989,1.188,1.78,1.188c0.659,0,1.187-0.264,1.517-0.791h1.78c-0.396,1.582-1.847,2.309-3.297,2.309
			c-1.78,0-3.362-1.057-3.362-3.299C47.275,18.23,48.857,17.176,50.638,17.176z M44.901,15h1.846v8.836h-1.846V15z M44.836,25.154
			h4.944v1.516h-3.099v1.979h2.109v1.516h-2.109v3.627h-1.846V25.154z M38.176,15h1.847v2.504c0.264-0.131,0.725-0.328,1.121-0.328
			c2.967,0,3.099,2.373,3.099,2.439c0,0.131,0,4.221,0,4.221l-1.846-0.068v-4.152H42.33c0,0,0.066-0.725-1.121-0.725
			c-0.923,0-1.121,0.527-1.187,0.725v4.152h-1.847V15z M33.824,15h1.714v2.307h1.187v1.781h-1.187v2.637c0,0.264,0,0.33,0.198,0.396
			h1.912v1.715h-1.714c-0.066,0-0.132,0-0.197,0h-0.198c-1.451,0-1.714-0.529-1.714-1.387V15z M28.021,15h2.242l3.231,8.836h-2.043
			l-0.594-1.848h-3.428l-0.659,1.848h-2.044L28.021,15z M19.978,24.033c1.648,0,3.099,0.922,3.099,2.967
			c0,0.197-0.066,0.395-0.066,0.594h-4.616c0.198,0.725,0.923,1.055,1.583,1.055c0.593,0,1.121-0.199,1.385-0.727h1.648
			c-0.396,1.451-1.648,2.109-3.033,2.109c-1.583,0-3.033-0.922-3.033-3.031C16.945,24.955,18.396,24.033,19.978,24.033z
			 M6.066,23.373v-1.451h6.725v2.375c0.264-0.197,0.66-0.33,1.055-0.33c2.703,0,2.769,2.109,2.769,2.242c0,0.066,0,3.758,0,3.758
			h-1.648v-3.758h-0.065c0,0,0.065-0.66-1.055-0.66c-0.791,0-0.989,0.461-1.055,0.66v3.758h-1.648v-6.594H9.561v6.594H7.846v-6.594
			H6.066z M60.198,46.449c-0.923,0.727-1.714,0.66-2.835,0.66c-0.66,0-0.989-0.133-1.648-0.197c-0.462,0-0.726,0-1.188,0
			c-2.505,0.064-3.89,0.791-6.395,0.658c-1.583-0.066-2.506-0.395-4.089-0.594c-2.703-0.395-4.22-0.658-6.989-0.658
			c-2.506,0-5.011,0.527-6.396,0.461c-0.66,0-0.989-0.131-1.517-0.395c-0.989-0.529-1.648-1.715-1.714-3.1
			c-0.066-0.924,0.396-3.164,0.396-3.693h-0.791c-3.033-0.131-4.681-0.525-5.935-1.846c-0.263,0-0.263-0.064-0.527-0.064
			c-0.988,0-1.648-0.066-2.703-0.199c-1.121-0.264-1.714-0.527-2.704-1.055c-1.582-0.725-1.846-1.912-2.11-1.979
			c-0.461-0.264-1.055-0.461-1.583-0.791c-1.517-0.791-2.638-1.252-3.165-2.9c1.253,0.594,2.241,0.791,3.824,1.055
			c0.792,0.066,1.252,0.131,2.11,0.131c1.252,0.066,1.978,0.066,3.231,0.066c2.242,0,3.429-0.131,5.67-0.395
			c0.989-0.133,1.517-0.197,2.571-0.264l1.055-0.133c-0.396-1.779-1.121-4.943-1.714-6.658h10.154
			c0.528,1.186,0.857,2.043,1.517,3.098c1.978,3.23,2.967,5.275,5.934,7.715c2.242,1.779,3.692,2.637,6.066,4.285
			c2.241,1.451,3.89,3.164,6.659,3.43l2.044-0.197c1.714,0,3.429,0.725,3.429,2.373C60.857,45.791,60.528,46.119,60.198,46.449z
			 M59.737,34.055c-1.781,0-3.363-1.055-3.363-3.363c0-2.242,1.582-3.297,3.363-3.297c1.78,0,3.362,1.055,3.362,3.297
			C63.1,33,61.518,34.055,59.737,34.055z M67.517,33.988h-1.647c-0.066,0-0.133,0-0.198,0h-0.198c-1.45,0-1.714-0.594-1.714-1.385
			v-7.449h1.647v2.307h1.254v1.781h-1.254v2.637c0,0.197,0.066,0.33,0.265,0.33l1.846,0.064V33.988z M70.022,23.967
			c-1.517,0-3.23-0.527-3.297-2.373h1.847c0,0.592,0.396,1.055,1.516,1.055c0.924,0,1.121-0.463,1.121-0.727
			c0-1.186-4.22-0.264-4.22-2.834c0-1.055,0.594-2.309,2.77-2.309c1.318,0,2.967,0.33,3.099,2.242h-1.78
			c-0.065-0.395-0.264-0.924-1.187-0.924c-0.989,0-1.121,0.396-1.121,0.727c0,1.055,4.286,0.264,4.286,2.834
			C73.056,23.637,71.144,23.967,70.022,23.967z"/>
		<path fill="#FFFFFF" d="M19.978,25.352c-0.593,0-1.187,0.264-1.45,0.857h2.966C21.165,25.615,20.638,25.352,19.978,25.352z"/>
		<path fill="#FFFFFF" d="M51.033,30.691c0,0.924,0.725,1.582,1.582,1.582s1.583-0.658,1.583-1.582c0-0.855-0.726-1.582-1.583-1.582
			S51.033,29.836,51.033,30.691z"/>
		<path fill="#FFFFFF" d="M50.638,18.691c-0.659,0-1.318,0.33-1.648,0.924h3.296C51.957,19.021,51.297,18.691,50.638,18.691z"/>
		<polygon fill="#FFFFFF" points="29.143,16.979 27.956,20.473 30.264,20.473 		"/>
		<path fill="#FFFFFF" d="M59.737,29.176c-0.858,0-1.583,0.66-1.583,1.516c0,0.924,0.725,1.582,1.583,1.582
			c0.856,0,1.582-0.658,1.582-1.582C61.319,29.836,60.594,29.176,59.737,29.176z"/>
		<path fill="#FFFFFF" d="M61.979,18.691c-0.659,0-1.318,0.33-1.648,0.924h3.297C63.297,19.021,62.638,18.691,61.979,18.691z"/>
		<path fill="#FFFFFF" d="M31.056,32.209c-0.726-0.266-3.759-0.396-4.221-0.396c-0.593,0-1.121,0.066-1.714,0.131
			c-1.187,0.133-3.824,0.396-4.352,0.396c-2.044,0.264-5.209,0.199-5.209,0.199c-2.505-0.066-4.088-0.199-6.264-0.727
			c0,0.264,0.923,0.924,2.835,1.715c0.726,0.264,2.044,0.527,3.23,0.725c0.989,0.066,2.176,0.197,4.286,0.197
			c1.318,0,2.109-0.064,3.429-0.197c1.121-0.066,3.494-0.131,3.494-0.131c1.253,0.064,1.978,0,2.835,0.527
			c-0.791-0.066-1.055-0.133-1.78-0.066c-2.637,0.197-4.813,0.725-7.846,0.725c-1.451,0-2.242,0-3.626-0.197
			c-0.924-0.066-1.583-0.197-2.374-0.396c0,0.594,1.253,1.318,2.11,1.65c1.384,0.525,2.901,0.725,4.748,0.592
			c3.758-0.131,5.274-0.725,8.703-0.855c1.451-0.068,3.165,0.195,3.626,0.988c-0.923-0.133-1.384-0.133-2.241-0.133
			c-2.77,0-4.286,0.463-6.989,0.66c-0.791,0.066-2.044,0.131-2.044,0.131c0.593,0.66,1.319,0.924,1.979,1.055
			C24.857,39.066,25.78,39,27.033,39c1.384,0,2.308,0,3.626-0.266c2.175-0.395,3.494-0.328,5.143-0.197
			c0.923,0.066,1.517,0.264,2.044,0.33c-0.527-1.582-1.319-3.033-3.166-4.812C33.692,33.197,32.242,32.604,31.056,32.209z"/>
	</g>
</g>
</svg>
