<?xml version="1.0" encoding="utf-8"?>
<!-- Generator: Adobe Illustrator 16.0.0, SVG Export Plug-In . SVG Version: 6.00 Build 0)  -->
<!DOCTYPE svg PUBLIC "-//W3C//DTD SVG 1.1//EN" "http://www.w3.org/Graphics/SVG/1.1/DTD/svg11.dtd">
<svg version="1.1" id="Layer_1" xmlns="http://www.w3.org/2000/svg" xmlns:xlink="http://www.w3.org/1999/xlink" x="0px" y="0px"
	 width="86px" height="60px" viewBox="0 0 86 60" enable-background="new 0 0 86 60" xml:space="preserve">
<g>
	<g>
		<path fill="#FFFFFF" d="M62.697,34.147l-2.247-1.033c-1.573-0.674-3.55-1.525-3.55-3.776c0-1.168,0.853-2.695,2.694-2.695
			c1.844,0,2.608,1.348,3.056,2.203c0.494,0.852,1.08,1.842,2.474,1.842c1.259,0,2.155-0.945,2.155-2.203
			c0-1.797-2.021-4.809-7.46-4.809c-5.705,0-7.819,3.416-7.819,6.605c0,4.182,3.596,5.934,4.944,6.563
			c1.124,0.537,3.755,1.699,4.478,2.311c0.603,0.508,1.455,1.24,1.455,2.768c0,1.662-1.215,2.785-2.831,2.785
			c-1.798,0-2.607-1.168-3.686-2.697c-0.63-0.852-1.259-1.75-2.517-1.75c-1.304,0-2.294,1.076-2.294,2.426
			c0,1.799,2.159,5.438,8.36,5.438c6.696,0,8.09-4.539,8.09-7.057C68,36.753,64.765,35.138,62.697,34.147z"/>
		<path fill="#FFFFFF" d="M48.349,25.747c1.667,0.178,6.548-3.582,7.075-8.607c0.35-3.314-1.41-5.064-3.44-5.279
			c-1.819-0.191-3.291,0.949-3.47,2.662c-0.124,1.176,0.343,1.873,1.188,3.098c0.37,0.58,0.738,1.213,0.643,2.121
			c-0.129,1.229-1.051,2.268-2.379,3.586c-0.418,0.389-0.605,0.641-0.657,1.119C47.24,25.088,47.666,25.674,48.349,25.747z"/>
		<path fill="#FFFFFF" d="M44.152,24.083c-0.605-1.844-1.729-4.064-3.627-4.711c-3.303-1.129-6.771,1.361-9.042,3.555
			c-2.419,2.338-3.452,5.023-9.695,9.223c-1.749,1.174-3.859,1.963-5.921,2.346c-2.59,0.482-4.769-0.281-7.302-0.496
			C3.749,33.591,0.009,35.429,0,38.31c-0.007,2.877,7.339,7.822,13.523,8.943c7.91,1.43,14.269,1.037,18.476-0.242
			c7.609-2.316,11.794-5.221,15.345-8.789c2.347-2.354,3.663-5.955,0.588-8.885C46.025,27.52,45.399,27.87,44.152,24.083z
			 M23.778,37.235c-1.619,0.662-4.303,0.742-4.511-0.227c-0.146-0.678,1.21-0.352,2.734-1.209c1.987-1.121,2.581-1.715,3.126-1.189
			C25.808,35.267,25.817,36.401,23.778,37.235z M35.213,29.639c-5.403,4.159-7.774,5.958-8.489,4.092
			c-0.392-1.021,1.309-1.676,2.802-3.12c1.884-1.824,4.103-4.701,6.191-6.373c2.424-1.941,3.932-1.396,4.463-0.225
			C40.969,25.75,38.217,27.327,35.213,29.639z"/>
	</g>
</g>
</svg>
