<?xml version="1.0" encoding="utf-8"?>
<!-- Generator: Adobe Illustrator 16.0.0, SVG Export Plug-In . SVG Version: 6.00 Build 0)  -->
<!DOCTYPE svg PUBLIC "-//W3C//DTD SVG 1.1//EN" "http://www.w3.org/Graphics/SVG/1.1/DTD/svg11.dtd">
<svg version="1.1" id="Layer_1" xmlns="http://www.w3.org/2000/svg" xmlns:xlink="http://www.w3.org/1999/xlink" x="0px" y="0px"
	 width="86px" height="60px" viewBox="0 0 86 60" enable-background="new 0 0 86 60" xml:space="preserve">
<g>
	<g>
		<path fill="#FFFFFF" d="M35.207,37.183c2.844-4.16,4.598-5.871,7.252-4.412c1.117,0.613,1.219,1.666,0.727,2.562
			c-0.403,0.734-1.471,1.188-2.379,0.689c-0.662-0.365-1.207-1.053-1.43-1.369c-0.732-1.037-2.982,2.117-3.65,3.332l2.632,4.215
			h3.03v0.834h-7.102l-1.255-1.973c-1.896,1.672-4.346,2.643-6.824,2.643c-3.43,0-6.552-2.074-6.552-6.154
			c0-4.213,3.551-5.918,6.52-7.289c-0.765-1.373-1.714-3.312-1.714-4.918c0-3.346,2.603-4.982,5.388-4.982
			c2.265,0,5.294,0.936,5.294,3.979c0,2.709-3.029,4.248-4.989,5.051L35.207,37.183z M26.604,30.927
			c-1.927,0.938-3.397,1.707-3.397,4.281c0,1.539,0.918,3.545,1.715,4.783c0.856,1.305,1.743,2.275,3.306,2.275
			c1.622,0,3.061-0.871,4.315-1.973L26.604,30.927z M29.666,28.653c1.898-0.568,2.662-2.006,2.662-4.08
			c0-2.006-0.641-3.445-2.632-3.445c-1.407,0-2.479,0.902-2.479,2.51c0,0.836,0.368,1.807,0.918,2.641L29.666,28.653z"/>
		<path fill="#FFFFFF" d="M53.693,29.124c0-1.035-1.785-1.434-2.406-1.434c-1.386,0-3.1,0.756-2.552,1.512
			c0.218,0.32,0.51,1.156,0.51,1.914c0,1.033-0.911,1.75-1.749,1.75c-1.021,0-1.896-0.594-1.896-1.871
			c0-3.027,3.572-4.102,5.797-4.102c1.568,0,3.244,0.279,4.666,1.074c1.021,0.559,1.35,1.197,1.35,2.43v10.598
			c0,0.518,0.438,0.756,0.875,0.756s0.984-0.596,1.277-0.916L60,41.394c-0.947,1.275-1.931,2.111-3.461,2.111
			c-1.607,0-2.625-1.076-2.846-2.828c-1.312,1.752-3.282,2.828-5.322,2.828c-2.189,0-3.793-1.314-3.793-3.863
			c0-4.742,5.833-5.74,9.115-5.539V29.124z M53.693,34.938c-2.26,0-5.286,0.32-5.286,3.547c0,1.752,0.656,3.066,2.37,3.066
			c1.275,0,2.223-1.076,2.66-2.35c0.22-0.598,0.256-1.314,0.256-2.072V34.938z"/>
		<g>
			<path fill="#FFFFFF" d="M14.689,43.511h3.322C16.914,43.511,15.817,43.481,14.689,43.511z"/>
			<path fill="#FFFFFF" d="M15.386,42.517V16.296h-4.877H8.824v0.996h2.625V30.28h-0.072c-0.438-1.873-2.042-3.387-4.412-3.387
				C3.171,26.894,0,31.354,0,35.298c0,2.072,0.73,4.74,2.188,6.135c1.386,1.316,2.369,2.072,4.301,2.072
				c2.297,0,4.012-1.195,4.887-3.307h0.072v3.312h3.24c1.128-0.029,2.225,0,3.322,0v-0.994H15.386z M11.449,37.728
				c0,2.391-2.151,4.98-4.375,4.98c-2.006,0-2.625-1.674-2.625-3.586v-7.09c0-2.271,0.291-4.342,2.697-4.342
				c2.808,0,4.303,3.305,4.303,5.816V37.728z"/>
		</g>
	</g>
</g>
</svg>
