<?xml version="1.0" encoding="utf-8"?>
<!-- Generator: Adobe Illustrator 16.0.0, SVG Export Plug-In . SVG Version: 6.00 Build 0)  -->
<!DOCTYPE svg PUBLIC "-//W3C//DTD SVG 1.1//EN" "http://www.w3.org/Graphics/SVG/1.1/DTD/svg11.dtd">
<svg version="1.1" id="Layer_1" xmlns="http://www.w3.org/2000/svg" xmlns:xlink="http://www.w3.org/1999/xlink" x="0px" y="0px"
	 width="86px" height="60px" viewBox="0 0 86 60" enable-background="new 0 0 86 60" xml:space="preserve">
<g>
	<path fill="#FFFFFF" d="M6.435,18.009c0-0.297,0.03-0.477,0.536-0.477h6.822c1.191,0,1.847,1.012,2.324,2.92l0.387,1.52h1.162
		c0.208-4.32,0.387-6.197,0.387-6.197s-2.92,0.328-4.647,0.328H4.677L0,15.954v1.25l1.579,0.297c1.103,0.211,1.37,0.447,1.46,1.461
		c0,0,0.089,2.98,0.089,7.896c0,4.914-0.089,7.863-0.089,7.863c0,0.895-0.357,1.221-1.46,1.43L0,36.45v1.25l4.677-0.148h7.805
		c1.758,0,5.839,0.148,5.839,0.148c0.089-1.072,0.685-5.928,0.775-6.465h-1.103l-1.162,2.652c-0.923,2.086-2.264,2.234-3.754,2.234
		H8.64c-1.49,0-2.205-0.596-2.205-1.877v-6.793c0,0,3.307,0,4.379,0.09c0.834,0.061,1.34,0.299,1.608,1.461l0.357,1.547h1.281
		l-0.089-3.902l0.179-3.932H12.87l-0.417,1.729c-0.268,1.131-0.447,1.34-1.608,1.459c-1.52,0.148-4.409,0.119-4.409,0.119V18.009z
		 M45.7,42.526c-0.894,0-1.162-0.416-1.281-1.012l-0.446-2.324l-1.252,0.061c-0.179,1.371-0.446,2.918-0.805,4.141
		c0.835,0.564,1.848,0.834,3.218,0.834c2.026,0,5.065-0.566,7.806-7.031l4.767-11.291c0.388-0.893,0.507-1.014,1.669-1.459
		L60,24.206v-1.043l-2.83,0.148l-3.01-0.148v1.043l0.775,0.238c0.774,0.238,1.132,0.506,1.132,1.131
		c0,0.328-0.089,0.477-0.269,0.895c-0.327,0.834-2.442,6.049-3.484,8.311c-1.312-3.275-3.1-8.162-3.308-8.877
		c-0.06-0.178-0.089-0.328-0.089-0.477c0-0.477,0.327-0.865,1.043-1.012l0.982-0.209v-1.043l-4.082,0.148l-3.246-0.148v1.043
		l0.536,0.178c0.774,0.27,0.864,0.359,1.37,1.49c2.056,4.646,4.35,10.576,5.094,12.512C49.007,41.634,47.1,42.526,45.7,42.526
		L45.7,42.526z M33.516,32.905l-1.133,0.029c0.149,1.43,0.18,2.859,0,4.172c0,0,2.265,0.832,4.559,0.832
		c3.098,0,5.571-1.488,5.571-4.377c0-5.066-7.508-4.262-7.508-7.658c0-1.4,1.281-1.936,2.592-1.936c1.103,0,1.996,0.387,2.175,0.953
		l0.745,2.234l1.103-0.061c0.059-1.191,0.148-2.562,0.327-3.664c-0.953-0.416-2.949-0.656-4.2-0.656
		c-2.92,0-5.273,1.283-5.273,4.143c0,5.004,7.328,3.902,7.328,7.656c0,1.25-0.804,2.205-2.592,2.205
		c-1.697,0-2.531-0.865-2.859-1.729L33.516,32.905z M24.131,18.843c-0.625,3.605-2.353,4.916-4.468,5.154v1.043h2.651v9.146
		c0,2.562,1.698,3.812,3.962,3.812c1.758,0,3.575-0.746,4.201-2.293l-0.625-0.805c-0.298,0.506-1.251,1.25-2.443,1.25
		c-1.311,0-2.026-0.893-2.026-3.158v-8.072l4.409,0.326l0.239-2.025l-4.648,0.18v-4.559H24.131z"/>
</g>
</svg>
