<?xml version="1.0" encoding="utf-8"?>
<!-- Generator: Adobe Illustrator 16.0.0, SVG Export Plug-In . SVG Version: 6.00 Build 0)  -->
<!DOCTYPE svg PUBLIC "-//W3C//DTD SVG 1.1//EN" "http://www.w3.org/Graphics/SVG/1.1/DTD/svg11.dtd">
<svg version="1.1" id="Layer_1" xmlns="http://www.w3.org/2000/svg" xmlns:xlink="http://www.w3.org/1999/xlink" x="0px" y="0px"
	 width="86px" height="60px" viewBox="0 0 86 60" enable-background="new 0 0 86 60" xml:space="preserve">
<g>
	<g>
		<polygon fill="#FFFFFF" points="25.466,32.003 28.192,32.003 26.813,19.913 		"/>
		<path fill="#FFFFFF" d="M41.375,16.481H40.22v15.49h1.284c0.993,0,1.507-0.801,1.475-1.666V18.276
			C42.979,17.476,42.497,16.448,41.375,16.481z"/>
		<path fill="#FFFFFF" d="M0,2v56h56V2H0z M18.987,30.851h-1.123V44.04h-0.545c0-0.545-0.321-0.803-0.609-0.707
			c-0.513,0.258-1.154,0.964-2.501,0.933c-1.7,0-3.432-0.675-3.464-4.3V19.232c0.032-2.823,1.925-3.498,3.271-3.498
			c0.834,0,1.732,0.386,2.502,0.899c0.192,0.16,0.448,0.191,0.448-0.256V15.99h0.546v8.826h-0.546c0-2.92-1.026-8.567-2.95-8.567
			c-0.994,0-1.123,1.509-1.123,2.149V42.18c0,0.897,0.577,1.636,1.347,1.636c0.803,0,1.412-0.705,1.412-1.636V30.851h-1.347v-0.449
			h4.683V30.851z M32.907,44.009h-4.618v-0.482h1.219l-1.251-11.039h-2.855l-1.09,9.755c-0.096,0.644,0.354,1.284,1.347,1.284v0.482
			h-3.464v-0.482c1.348-0.031,1.412-0.609,1.572-1.54l2.887-25.996h1.957l3.079,27.536h1.219V44.009z M45.191,29.792
			c0,1.571-1.251,2.729-3.432,2.729h-1.54v11.006h1.765v0.482h-5.196v-0.482h1.219V16.474h-1.219v-0.449h4.618
			c2.727,0,3.785,1.379,3.785,2.952V29.792z"/>
	</g>
</g>
</svg>
