<?xml version="1.0" encoding="utf-8"?>
<!-- Generator: Adobe Illustrator 16.0.0, SVG Export Plug-In . SVG Version: 6.00 Build 0)  -->
<!DOCTYPE svg PUBLIC "-//W3C//DTD SVG 1.1//EN" "http://www.w3.org/Graphics/SVG/1.1/DTD/svg11.dtd">
<svg version="1.1" id="Layer_1" xmlns="http://www.w3.org/2000/svg" xmlns:xlink="http://www.w3.org/1999/xlink" x="0px" y="0px"
	 width="86px" height="60px" viewBox="0 0 86 60" enable-background="new 0 0 86 60" xml:space="preserve">
<g>
	<g>
		<path fill-rule="evenodd" clip-rule="evenodd" fill="#FFFFFF" d="M5.99,3.846h0.986v0.582L6.779,4.624v0.129L6.681,4.949
			L6.483,5.728l0.197,0.194v0.193L7.765,6.7c0.493,0.325,0.69,0.519,0.887,0.845L8.159,7.219v0.195l0.099,0.324H7.962V7.673
			L7.765,7.545v0.193l0.197,0.26L7.765,7.867L7.469,7.738l0.197,0.583L5.99,8.842L5.793,8.518V8.389L5.498,8.971L5.3,9.167
			L4.807,9.036H3.822l0.197-0.519L3.328,8.842l0.395-0.324l-0.69,0.193l0.295-0.39L2.835,8.518l0.198-0.454l0.789-0.975l1.38-0.974
			l0.296-0.388l0.197-0.13V4.17L5.99,3.846L5.99,3.846z M1.751,30.577l-0.395,0.196l-0.295,0.324
			c-0.493,1.298-0.69,2.594-0.493,4.022v0.325c0.197,1.167,0.295,2.595,0.789,4.088l2.366,6.098l1.479,3.959L5.3,50.822v1.038
			l-0.098,0.259l-0.396,0.325l-0.788,0.389l-1.184,0.778l-1.084,0.65l-0.69,0.129l-0.296-0.129H0.372l-0.296,0.193
			c-0.198,0.65,0,1.104,0.493,1.232c1.479,0.195,3.253,0.195,5.422-0.129l2.957,0.195l1.676-0.195l0.493-0.322l0.099-0.521v-0.324
			l-0.295-0.779l-0.493-1.167c-0.296-0.454-0.493-0.778-0.493-1.102c-0.296-1.3-0.493-2.728-0.493-4.349v-1.363l0.296-3.049v-0.454
			L9.638,41.74v-0.781l2.268,1.169l2.464,0.907v0.196l0.296,0.194l0.69,0.324l0.69,0.129l1.971-0.193l2.761,0.064l1.281,0.648
			l1.479,0.453c0.493,0.131,1.184-0.128,1.677-0.518l1.281-1.103l2.464,0.129l2.366-1.298l1.578,3.568v0.194
			c0.688,1.429,0.985,2.726,1.183,3.894c-0.197,0.324-0.297,0.649-0.297,1.168l0.297,2.402l-0.197,1.102v0.064l-0.297,0.585
			c-0.195,0.065-0.195,0.196,0,0.325l-0.195,0.389c0,0.324,0.393,0.453,0.887,0.584l1.971,0.063l1.973-0.194l0.788-0.52V55.04
			l-0.196-0.649v-0.129l-0.494-1.104l-0.098-0.52V51.99l-0.494-1.622l0.1-1.753l0.689-2.984v-0.453
			c0.493-1.492,0.789-3.115,0.985-4.738c0.198-1.622,0-3.178-0.296-4.801l-0.196-0.519l-0.296-1.946l-0.887-1.818
			c-1.282-2.725-2.268-4.216-3.057-4.541l-0.492-0.648v-0.13l3.253-2.467l0.788-0.647c0.395-0.26,0.494-0.324,0.69-0.454
			l0.492-0.778l-0.492,0.129l-1.479,0.975l-1.282,1.102l-2.168,2.142l-0.197,0.13h-0.297l-0.195-0.324
			c0-0.325,0.195-0.648,0.492-0.908l0.887-0.519c0.592-0.649,1.479-1.429,2.562-2.272l1.973-1.816L40,19.353l-0.493,0.323
			c-0.788,0-1.478,0.325-2.267,1.04l-0.986,1.103l-0.986,0.975l-0.887-0.325l-1.281,1.427l-1.774,1.947l-0.394-1.232l-0.1-0.844
			c-0.197-0.52-0.492-0.844-0.887-1.168c-0.099-0.262-0.492-0.455-0.986-0.779l-0.592-0.454l-0.394-0.323l-1.479-1.818l-1.577-1.945
			l-2.662-2.921c-0.197-0.194-0.984-0.777-2.464-1.493l-3.45-0.972l-2.169-0.454l-1.773-0.131v-0.193l-0.198-0.325l-0.098-0.194
			c-0.493-0.325-0.986-0.973-1.874-1.947L8.455,6.571L7.469,6.053l-0.789-0.65c0.295-0.129,0.493-0.453,0.591-0.975L7.174,3.846
			L6.681,3.65c-0.395-0.13-0.69,0-0.986,0.195L5.498,4.624v0.454L5.3,5.468l-0.098,0.13L5.004,5.922L3.723,6.766L2.54,7.867
			c-0.493,0.521-0.789,1.3-0.789,2.272c-0.197,0.519,0,1.298,0.099,2.467v1.427l0.69,1.102l0.493,1.169
			c0.197,0.325,0.197,0.778,0,1.298c-0.493,0.453-0.69,0.973-0.789,1.621l-0.197,1.753v4.541l-0.296,2.467L1.357,29.41l0.197,0.973
			L1.751,30.577L1.554,29.93l0.197-1.299l0.296-1.816V26.49l0.197-0.26l0.099,0.778L2.54,27.14v0.065
			c0.986,0.973,1.774,2.076,2.267,3.502c0.691,1.299,0.986,2.662,0.986,4.284l0.493,0.323l0.395,0.324
			c0.493,0.131,0.591,0.326,0.789,0.65l0.197,0.973l0.592,1.623c-0.099,0.322-0.493,0.453-0.592,0.322l-0.394-0.322l-0.493-1.041
			l-0.099-0.259H6.483v-0.063c-0.197,0.519-0.295,1.167-0.197,1.945l0.395,1.298l0.985,1.363l0.099,0.454l-0.493,0.129l-0.591-0.583
			l-0.395-0.649c-0.098-0.325-0.296-0.389-0.493-0.325L5.695,40.83l-0.197,0.323l0.197,0.456l0.098,0.324l-0.098,0.323l-0.197,0.454
			l-0.987-2.205l-0.295-0.066c-0.197-0.129-0.395-1.102-0.69-2.724v-0.649L3.033,35.77l-0.198-0.975L2.343,32.07l-0.295,2.271
			L1.85,34.795l-0.296,0.52l-0.296,0.26c-0.197,0-0.197-0.129-0.395-0.454l-0.098-0.845l0.098-1.88
			c0.198-0.844,0.198-1.364,0.395-1.493l0.592-0.195L1.751,30.577L1.751,30.577z M10.131,12.086c0.296-0.52,0.591-0.648,0.985-0.194
			l0.099,0.647l-0.295-0.324c-0.198-0.323-0.493-0.258-0.789,0.195V12.086L10.131,12.086z M5.695,11.76l0.295,0.197l0.296,0.129
			l0.197,0.649l0.296,0.454L5.3,13.385c-0.591,0-1.083,0.194-1.281,0.518l-0.197,0.26l0.395-0.583l-0.197-0.065l-0.493,0.389
			l-0.69,0.131L2.54,13.902l-0.197,0.131v-0.52l0.395,0.194l0.296,0.129l0.69-0.129l0.099-0.129v-0.194H3.23l-0.69-0.131
			l-0.197-0.064v-0.26c0.395,0.324,0.69,0.324,0.985,0.26l0.395-0.129l0.986-0.779L5.3,12.086L5.695,11.76L5.695,11.76z
			 M4.216,16.629l0.295,0.453L5.3,17.795H4.807l-0.492-0.062H3.822v-1.3L4.216,16.629L4.216,16.629z M10.229,14.681l0.493-0.324
			v-0.454l0.493,0.131l0.395-0.325l-0.395-0.323l-0.099,0.129v-0.453c0.296,0,0.493,0.129,0.591,0.453l-0.098,0.648l-0.395,0.649
			l-1.084,0.714c-0.197,0-0.394-0.066-0.394-0.391v-0.648L10.229,14.681L10.229,14.681z M2.54,18.381l0.69-0.908l0.098,0.453
			l0.395,0.779l0.591,1.296L5.3,20.976l0.493,0.714l-0.295,0.324H5.202l-1.183-0.195v-0.195l-0.296-0.259l-0.197-0.323L3.23,21.364
			l-0.197-0.063l-0.198-0.454l-0.098,0.518l-0.395,0.325l-0.099-0.974v-1.04L2.54,18.381L2.54,18.381z M31.128,26.166h-0.986
			l-0.492-0.324l-0.297-0.648h-0.986l-0.394,0.063l-0.985,0.648l-0.295,0.131l0.195,0.454l0.592,0.39l-0.295,0.907l-0.69,0.65
			l0.198,0.324c-0.297,0-0.494,0.065-0.494,0.195l0.197,0.13l0.099,0.323l-0.296,0.064v1.232l-0.296,0.845l-0.196,0.194
			l-0.691,0.649l-4.73,3.828c-0.198,0.325-0.198,0.519,0,0.713l0.295,0.325c0.198,0.582-0.098,1.298-0.788,2.271l-0.69,0.973
			l-0.295,0.453l-0.789-0.648l-0.394,0.52l-0.591,0.648l-1.184-0.648l-0.196-0.391v-0.258l0.493-0.975l-0.098-0.519l-1.972,3.245
			l-0.493-0.131c-0.197-0.062-0.197-0.324,0-0.52l1.577-2.92c-0.295,0.325-0.591,0.325-0.789-0.129l1.183-0.973l0.986-1.038
			l1.282-1.104l0.196-0.129l0.592-0.196l0.689-1.167l0.789-1.298l1.379-1.428l0.297-0.779l0.492-0.973
			c0.494-0.973,0.789-1.621,1.281-2.011l1.677-0.974l0.788-0.324l0.197-0.131h-1.971l-0.691-0.194l-0.492-0.323l-0.494,0.063
			l-0.295-0.194v-0.453L21.96,24.74l-0.395-0.131v-0.324h-0.295V24.09l0.195-0.324v-0.196h-0.395
			c-0.294-0.13-0.59-0.454-0.787-0.776v-0.52l-0.198-0.325l-0.295-0.454l-1.282-1.168l-0.689-0.129l-0.789-0.129l-0.887,0.258
			c-0.098,0.064-0.296,0.195-0.296,0.39c-0.196,0.778,0.198,1.232,0.986,1.103c0.493,0.975,0.295,1.751-0.493,2.271l-0.295,0.325
			l0.098,0.325v0.322l-0.296-0.129v0.26l0.198,0.323v0.194l-0.198,0.131c-0.196-0.131-0.295-0.131-0.295,0l0.099,0.194l0.196,0.324
			l-0.295,0.323l0.494,0.196l-0.395,0.26c0.196,0.39,0,0.844-0.296,1.298c-0.296,0.324-0.789,0.649-1.282,0.844l-1.675,0.129
			c-0.691-0.26-1.184-0.583-1.677-0.973c-0.098-0.584-0.295-0.975-0.295-1.298l0.197-0.649l0.296-0.648l0.689-2.076l0.591-3.375
			c1.184-2.596,1.184-5.385,0.394-8.499l0.296-0.132l0.494-0.128h1.183l1.281,0.325l4.141,1.232
			c0.789,0.324,1.775,0.973,2.562,1.945l0.986,1.169l0.888,0.844l3.549,4.153l0.493,0.322l0.887,0.713
			c0.789,0.779,1.084,1.301,1.084,1.883l0.395,1.363L31.128,26.166h1.774c0.886,0.064,1.675,0.389,2.169,1.168
			c1.773,2.076,2.266,3.439,1.676,4.218c-0.494-0.454-3.352-1.104-8.084-2.077l0.493-1.037l2.267-2.207l0.197-0.064H31.128
			L31.128,26.166z M6.188,42.128l0.295,0.258l0.197,1.171H6.286l-0.493-0.456L6.188,42.128L6.188,42.128z M5.99,50.887l0.198,0.326
			l0.295,0.453l0.296,0.778c0.69,1.492,0.69,2.336,0,2.661L5.793,55.43l-1.479,0.129L2.54,55.688l-1.972-0.322l-0.295-0.26
			l0.099-0.325l0.394-0.065h0.493l0.493-0.129l0.591-0.195l0.395-0.258l0.493-0.521c0.592-0.518,1.281-0.842,1.972-0.842
			c0.493-0.325,0.591-0.65,0.591-1.104l-0.098-0.973h0.098L5.99,50.887L5.99,50.887z M34.38,22.922l0.986,0.193l-2.464,2.078
			l0.688-1.299l0.297-0.779l0.395-0.129L34.38,22.922L34.38,22.922z M15.158,41.479l1.676,1.104l-0.296,0.324l-0.197,0.52
			c-1.183,0.26-1.676-0.065-1.676-0.844L15.158,41.479L15.158,41.479z M17.524,42.386l0.493-1.103l0.493-0.324h0.099v0.131
			l-0.296,0.844l-0.492,0.973c-0.198,0.129-0.296,0.129-0.296-0.195V42.386L17.524,42.386z M37.832,52.639l0.197,0.844
			c1.182,1.429,1.281,2.271,0.492,2.531l-0.985,0.193l-1.676,0.131c-1.479,0.063-2.269-0.26-2.071-0.779
			c-0.197-0.193,0-0.519,0.494-0.844l0.098-0.324c0.197-0.129,0.197-0.129,0,0l-0.098-0.325v-1.621l-0.197-1.102l0.295-1.947
			l0.395,0.323l0.492,0.195l-0.393,0.258l1.379,0.196c0.1,0.129,0.296,0.325,0.1,0.454l-0.296,0.324
			c0.492,0.325,0.985,0.391,1.479,0.391C37.732,51.795,37.832,52.119,37.832,52.639L37.832,52.639z"/>
	</g>
</g>
</svg>
