<?xml version="1.0" encoding="utf-8"?>
<!-- Generator: Adobe Illustrator 16.0.0, SVG Export Plug-In . SVG Version: 6.00 Build 0)  -->
<!DOCTYPE svg PUBLIC "-//W3C//DTD SVG 1.1//EN" "http://www.w3.org/Graphics/SVG/1.1/DTD/svg11.dtd">
<svg version="1.1" id="Layer_1" xmlns="http://www.w3.org/2000/svg" xmlns:xlink="http://www.w3.org/1999/xlink" x="0px" y="0px"
	 width="86px" height="60px" viewBox="0 0 86 60" enable-background="new 0 0 86 60" xml:space="preserve">
<g>
	<g>
		<polygon fill="#FFFFFF" points="69.739,10.858 0.271,10.864 0.012,10.864 0.011,11.124 0,45.358 0,45.618 0.261,45.618 
			3.997,45.618 3.742,45.099 0.521,45.099 0.532,11.384 69.479,11.378 69.479,45.099 66.231,45.099 65.981,45.618 69.739,45.618 
			70,45.618 70,45.358 70,11.118 70,10.858 		"/>
		<path fill="#FFFFFF" d="M52.095,45.099H17.983c-0.621,0.165-1.237,0.338-1.849,0.52h37.807c-0.543-0.16-1.088-0.318-1.635-0.465
			C52.236,45.134,52.165,45.117,52.095,45.099z"/>
		<path fill="#FFFFFF" d="M66.951,42.803l-0.062-0.032l-0.019-0.008l0,0c-1.344-0.647-2.717-1.259-4.115-1.826
			c-1.394-0.57-2.81-1.098-4.242-1.58c-1.842-0.621-3.717-1.172-5.621-1.646c0.16-0.064,0.312-0.145,0.455-0.239
			c0.673-0.452,1.116-1.22,1.119-2.091l0.003-4.328h0.031c0.952,0.393,1.994,0.606,3.087,0.606c4.495,0,8.142-3.642,8.142-8.143
			c0-4.495-3.644-8.14-8.142-8.14c-4.494-0.002-8.141,3.645-8.141,8.14l-0.008,11.862c0.002,0.467,0.133,0.904,0.355,1.279
			c0.089,0.148,0.191,0.287,0.309,0.414c-4.863-1.014-9.901-1.547-15.064-1.547h-0.021c-5.719,0.002-11.29,0.658-16.636,1.896
			c-0.866,0.201-1.732,0.42-2.593,0.652c-4.412,1.195-8.661,2.793-12.698,4.744l-0.063,0.031l0.03,0.064l1.07,2.186l0.255,0.52
			l1.691,3.459l0.032,0.064l0.063-0.031l0.017-0.01l0.001-0.002c1.225-0.59,2.47-1.145,3.726-1.657
			c1.262-0.517,2.544-0.995,3.845-1.434c0.395-0.133,0.792-0.264,1.189-0.39c0.575-0.182,1.154-0.353,1.735-0.52
			c5.83-1.672,11.988-2.567,18.356-2.567h0.021c5.157,0,10.181,0.591,14.997,1.701c0.788,0.183,1.568,0.378,2.34,0.585
			c0.333,0.09,0.664,0.186,0.994,0.281c0.581,0.167,1.158,0.338,1.731,0.52c3.006,0.953,5.923,2.111,8.729,3.464l0.064,0.03
			l0.029-0.064l1.65-3.43l0.25-0.52l1.075-2.233L66.951,42.803z M57.588,20.375c1.734,0,3.14,1.407,3.14,3.141
			c0,1.735-1.405,3.14-3.14,3.14c-1.736,0-3.142-1.404-3.142-3.141C54.446,21.78,55.854,20.371,57.588,20.375z M65.69,45.099
			l-0.249,0.52l-1.592,3.309c-2.66-1.28-5.424-2.385-8.27-3.309c-0.557-0.178-1.115-0.353-1.677-0.52
			c-0.488-0.145-0.979-0.283-1.472-0.414c-0.778-0.211-1.562-0.408-2.344-0.589c-4.831-1.114-9.863-1.705-15.028-1.707h-0.021
			c-6.552,0-12.885,0.948-18.866,2.71c-0.562,0.165-1.12,0.342-1.676,0.52c-0.261,0.086-0.522,0.168-0.782,0.257
			c-1.302,0.438-2.588,0.919-3.853,1.436c-1.254,0.513-2.486,1.062-3.691,1.643L4.54,45.618l-0.254-0.52l-1.068-2.186
			c4.015-1.938,8.232-3.521,12.607-4.705c0.853-0.23,1.718-0.449,2.589-0.65c5.332-1.236,10.893-1.891,16.605-1.891h0.021
			c5.229,0,10.33,0.549,15.25,1.589c0.443,0.396,1.025,0.638,1.668,0.638c0.239,0,0.469-0.035,0.688-0.098
			c1.976,0.485,3.918,1.049,5.825,1.693c1.432,0.482,2.846,1.008,4.234,1.576c1.37,0.557,2.725,1.16,4.06,1.802L65.69,45.099z"/>
		<path fill="#FFFFFF" d="M47.278,23.511c0-4.495-3.646-8.137-8.142-8.137c-4.498-0.004-8.144,3.64-8.144,8.137
			c-0.002,4.496,3.643,8.142,8.138,8.144C43.633,31.654,47.275,28.011,47.278,23.511z M35.993,23.511c0-1.736,1.409-3.14,3.142-3.14
			c1.736,0,3.139,1.405,3.139,3.14c0,1.736-1.405,3.145-3.139,3.145S35.993,25.245,35.993,23.511z"/>
		<path fill="#FFFFFF" d="M9.298,29.44l0.003-11.584c0-1.389-1.122-2.512-2.51-2.512c-1.387,0-2.506,1.123-2.517,2.509L4.271,29.44
			c0.012,1.389,1.131,2.512,2.519,2.512S9.298,30.83,9.298,29.44z"/>
		<path fill="#FFFFFF" d="M15.722,15.345c-1.391,0-2.51,1.123-2.518,2.512L13.201,29.44c0.008,1.39,1.127,2.516,2.515,2.516
			c1.388,0,2.526-1.126,2.526-2.514l0.003-3.84l5.022,0.004l-0.002,3.836c0,1.388,1.141,2.514,2.527,2.514
			c1.387,0,2.508-1.122,2.517-2.51l0.003-11.588c-0.008-1.385-1.127-2.512-2.515-2.512s-2.53,1.127-2.53,2.512v3.407h-5.022v-3.409
			C18.246,16.47,17.107,15.345,15.722,15.345z"/>
		<path fill="#FFFFFF" d="M10.333,42.919c-0.174-0.454-0.638-0.599-1.285-0.344L7.82,43.052l0.8,2.047l0.204,0.52l0.072,0.187
			l0.479-0.187l0.354-0.137l-0.15-0.383l-0.259-0.659l0.214-0.085l0.701,0.744l0.164,0.174l0.34-0.174l0.513-0.264l-1.07-0.942
			C10.387,43.667,10.498,43.339,10.333,42.919z M9.351,43.826l-0.235,0.093L8.85,43.243l0.221-0.086
			c0.178-0.07,0.373-0.068,0.478,0.199C9.608,43.511,9.571,43.743,9.351,43.826z"/>
		<polygon fill="#FFFFFF" points="14.937,43.083 14.73,42.403 15.575,42.144 15.417,41.62 14.573,41.87 14.405,41.312 
			15.269,41.052 15.111,40.522 13.391,41.04 14.244,43.87 16.135,43.3 15.975,42.771 		"/>
		<path fill="#FFFFFF" d="M20.345,40.515c-0.337-0.197-0.609-0.279-0.643-0.439c-0.024-0.094,0.048-0.193,0.217-0.232
			c0.16-0.035,0.317-0.029,0.446,0.017l0.126-0.505c-0.114-0.04-0.432-0.108-0.798-0.029c-0.544,0.12-0.942,0.536-0.841,0.998
			c0.077,0.353,0.288,0.469,0.646,0.666c0.271,0.148,0.587,0.256,0.638,0.488c0.045,0.213-0.123,0.342-0.297,0.379
			c-0.206,0.045-0.395-0.025-0.538-0.092L19.14,42.3c0.272,0.135,0.627,0.141,0.965,0.066c0.867-0.188,0.947-0.832,0.893-1.084
			C20.932,40.981,20.792,40.78,20.345,40.515z"/>
		<polygon fill="#FFFFFF" points="26.357,38.247 23.784,38.603 23.861,39.153 24.706,39.037 25.035,41.415 25.916,41.295 
			25.587,38.913 26.434,38.798 		"/>
		<path fill="#FFFFFF" d="M30.718,37.873l-1.042,3.016l0.698-0.038l0.244-0.72l0.917-0.05l0.271,0.689l0.941-0.047l-1.282-2.891
			L30.718,37.873z M30.743,39.656c0.092-0.358,0.177-0.646,0.266-1.073h0.009c0.129,0.416,0.229,0.691,0.347,1.037L30.743,39.656z"
			/>
		<path fill="#FFFFFF" d="M37.757,39.323c-0.017,0.561-0.194,0.85-0.491,0.842c-0.375-0.01-0.447-0.322-0.43-0.856l0.045-1.546
			l-0.892-0.028l-0.053,1.81c-0.027,0.881,0.513,1.215,1.269,1.236c0.676,0.02,1.285-0.298,1.311-1.184l0.055-1.782L37.8,37.79
			L37.757,39.323z"/>
		<path fill="#FFFFFF" d="M43.472,38.221l-1.308-0.147l-0.33,2.939l0.885,0.096l0.123-1.112l0.232,0.028l0.334,1.215l0.959,0.01
			l-0.507-1.332c0.286-0.104,0.538-0.342,0.589-0.791C44.504,38.642,44.164,38.298,43.472,38.221z M43.156,39.472l-0.252-0.028
			l0.084-0.722l0.234,0.029c0.188,0.017,0.36,0.109,0.326,0.402C43.531,39.309,43.391,39.499,43.156,39.472z"/>
		<path fill="#FFFFFF" d="M49.017,39.075l-1.757,2.664l0.682,0.135l0.414-0.637l0.902,0.182l0.088,0.736l0.927,0.184l-0.522-3.117
			L49.017,39.075z M48.596,40.81c0.178-0.324,0.336-0.582,0.527-0.973h0.008c0.021,0.438,0.049,0.73,0.075,1.094L48.596,40.81z"/>
		<path fill="#FFFFFF" d="M55.535,42.429l-0.009-0.004c-0.091-0.446-0.485-1.361-0.749-1.982l-0.621-0.18l-0.827,2.834l0.673,0.197
			l0.486-1.661l0.006,0.004c0.135,0.547,0.512,1.396,0.787,2.034l0.569,0.164l0.832-2.834l-0.672-0.195L55.535,42.429z"/>
		<polygon fill="#FFFFFF" points="59.707,42.61 60.5,42.921 59.654,45.099 59.631,45.161 60.463,45.481 60.611,45.099 
			61.332,43.247 62.128,43.553 62.328,43.038 59.907,42.097 		"/>
	</g>
</g>
</svg>
