<?xml version="1.0" encoding="utf-8"?>
<!-- Generator: Adobe Illustrator 16.0.0, SVG Export Plug-In . SVG Version: 6.00 Build 0)  -->
<!DOCTYPE svg PUBLIC "-//W3C//DTD SVG 1.1//EN" "http://www.w3.org/Graphics/SVG/1.1/DTD/svg11.dtd">
<svg version="1.1" id="Layer_1" xmlns="http://www.w3.org/2000/svg" xmlns:xlink="http://www.w3.org/1999/xlink" x="0px" y="0px"
	 width="86px" height="60px" viewBox="0 0 86 60" enable-background="new 0 0 86 60" xml:space="preserve">
<g>
	<g>
		<path fill="#FFFFFF" d="M16.809,52.705l0.225-1.031c0.049-0.225-0.232-0.32-0.301-0.039l-0.253,1.053
			C16.419,52.938,16.754,52.957,16.809,52.705z"/>
		<path fill="#FFFFFF" d="M12.259,52.627c-0.207,0-0.357,0.283-0.357,0.504c0,0.115,0.048,0.301,0.161,0.301
			c0.165,0,0.332-0.137,0.332-0.482C12.395,52.85,12.381,52.627,12.259,52.627z"/>
		<path fill="#FFFFFF" d="M21.102,52.02h0.254c0.069,0,0.139-0.057,0.153-0.127l0.056-0.264c0.016-0.07-0.029-0.127-0.1-0.127
			h-0.254c-0.069,0-0.139,0.057-0.153,0.127l-0.056,0.264C20.986,51.963,21.031,52.02,21.102,52.02z"/>
		<ellipse fill="#FFFFFF" cx="12" cy="9.642" rx="12" ry="7.089"/>
		<path fill="#FFFFFF" d="M0.052,15.435v42.012h23.896V15.435C20.82,17.134,16.619,18.178,12,18.178
			C7.38,18.178,3.18,17.134,0.052,15.435z M2.307,49.85h1.35v0.5h-1.35V49.85z M3.145,54.391H2.792H1.433
			c-0.165,0-0.299-0.133-0.299-0.299H1.125l0.706-2.805c0.019-0.049,0.03-0.102,0.03-0.156c0-0.219-0.164-0.398-0.369-0.406v-0.002
			h0.48h1.359c0.165,0,0.299,0.135,0.299,0.299H3.64l-0.744,2.957c-0.014,0.033-0.021,0.072-0.021,0.113
			C2.875,54.252,2.995,54.385,3.145,54.391L3.145,54.391z M9.728,54.391H9.375H8.047c-0.165,0-0.298-0.133-0.298-0.299H7.74
			l0.643-2.561c-0.15-0.047-0.354,0.014-0.498,0.145l-0.58,2.303c-0.013,0.033-0.021,0.072-0.021,0.113
			c0,0.16,0.12,0.293,0.27,0.299l0,0H7.203H5.977c-0.165,0-0.299-0.133-0.299-0.299H5.669l0.644-2.562
			c-0.147-0.016-0.337,0.045-0.484,0.154l-0.577,2.295c-0.014,0.033-0.021,0.072-0.021,0.113c0,0.16,0.12,0.293,0.27,0.299l0,0
			H5.148H3.812c-0.165,0-0.298-0.133-0.298-0.299h-0.01l0.706-2.805c0.019-0.049,0.029-0.102,0.029-0.156
			c0-0.219-0.163-0.398-0.368-0.406v-0.002h0.48h1.336c0.165,0,0.299,0.135,0.299,0.299h0.004c0.136-0.143,0.36-0.297,0.526-0.297
			v-0.002h1.199c0.142,0,0.37,0.152,0.333,0.303c0.135-0.145,0.369-0.303,0.537-0.303h1.328c0.165,0,0.299,0.135,0.299,0.299
			l-0.734,2.957c-0.013,0.033-0.021,0.072-0.021,0.113C9.458,54.252,9.577,54.385,9.728,54.391L9.728,54.391z M18.92,53.41
			l0.477-1.9c0.115-0.453,0.695-0.787,1.163-0.787h1.972c0.271,0,0.605,0.346,0.54,0.611l-0.314,1.25h-1.954l-0.065,0.463
			c0,0.227,0.513,0.383,1.07,0.383c0.335,0,0.632-0.125,0.815-0.316l-0.231,0.924c-0.059,0.23-0.384,0.354-0.621,0.354h-2.235
			C19.148,54.391,18.825,53.785,18.92,53.41z M16.635,53.615c-0.061-0.033-0.144,0.006-0.229,0.082l-0.009,0.008
			c-0.217,0.219-0.438,0.346-0.887,0.346c-0.335,0-0.726-0.174-0.962-0.443l0.583-2.32c0.073-0.291,0.439-0.564,0.789-0.564h2.453
			c0.359,0,0.623,0.195,0.485,0.744l-0.735,2.924c-0.148,0.588-0.344,1.049-1.06,1.049h-2.271c-0.336,0-0.672-0.137-0.583-0.49
			l0.265-1.057c0.193,0.35,0.602,0.594,1.075,0.594c0.48,0,0.896-0.25,1.083-0.609C16.684,53.777,16.695,53.65,16.635,53.615z
			 M14.426,51.525L13.803,54c-0.01,0.029-0.015,0.059-0.015,0.092c0,0.16,0.12,0.293,0.269,0.299l0,0c-0.52,0-1.027,0-1.82,0V54.1
			h-0.244c-0.231,0.195-0.546,0.291-1.023,0.291c-0.726,0-0.861-0.23-0.837-0.984c0.006-0.211,0.063-0.436,0.174-0.652
			c0.255-0.502,0.722-0.811,1.152-0.807h1.253l0.143-0.502h-1.615l0.139-0.723h2.324C14.192,50.723,14.562,50.984,14.426,51.525z"/>
	</g>
</g>
</svg>
