<?xml version="1.0" encoding="utf-8"?>
<!-- Generator: Adobe Illustrator 16.0.0, SVG Export Plug-In . SVG Version: 6.00 Build 0)  -->
<!DOCTYPE svg PUBLIC "-//W3C//DTD SVG 1.1//EN" "http://www.w3.org/Graphics/SVG/1.1/DTD/svg11.dtd">
<svg version="1.1" id="Layer_1" xmlns="http://www.w3.org/2000/svg" xmlns:xlink="http://www.w3.org/1999/xlink" x="0px" y="0px"
	 width="86px" height="60px" viewBox="0 0 86 60" enable-background="new 0 0 86 60" xml:space="preserve">
<g>
	<g>
		<path fill-rule="evenodd" clip-rule="evenodd" fill="#FFFFFF" d="M37.053,32.287l-0.206,0.416
			c-0.342,0.762-0.683,1.525-1.162,2.357c-0.206,0.414,0,1.107,0.546,1.248c0.205,0.068,0.274,0.137,0.274,0.207
			s-0.137,0.07-0.274,0.07c-0.136,0-0.683,0-1.845,0c-0.89,0-1.641,0-1.847,0c-0.273,0-0.341-0.07-0.341-0.07
			c0-0.207,0.274-0.277,0.41-0.348c0.888-0.693,1.983-2.355,2.461-3.188l5.196-9.705c0.068-0.068,0.136-0.139,0.136-0.139h0.069
			c0.069,0,0.136,0.07,0.136,0.139l6.221,11.16c0.342,0.625,0.82,1.248,1.437,1.732c0.204,0.141,0.478,0.209,0.478,0.348
			c0,0-0.068,0.07-0.273,0.07c-0.137,0-1.025,0-2.256,0c-1.777,0-2.529,0-2.667,0c-0.136,0-0.205,0-0.205-0.07
			s0.069-0.139,0.273-0.139c0.479-0.209,0.547-0.555,0.547-1.041c0-0.416-0.41-1.385-0.957-2.355l-3.281-5.963L37.053,32.287
			L37.053,32.287z"/>
		<path fill-rule="evenodd" clip-rule="evenodd" fill="#FFFFFF" d="M53.938,32.91c0,2.01,0.068,2.98,0.957,3.467
			c0.137,0.068,0.273,0.068,0.273,0.139s-0.068,0.07-0.478,0.07h-3.556c-0.137,0-0.137,0-0.137-0.07c0,0,0-0.07,0.137-0.07
			c1.368-0.623,1.23-2.217,1.23-3.535v-5.684c0-2.635,0-3.188-0.615-3.467c-0.205-0.068-0.342-0.139-0.342-0.207
			c0-0.07,0.068-0.139,0.273-0.139h3.555l8.683,9.012v-4.645c0.068-1.941,0.272-3.535-1.025-4.09c-0.138,0-0.205-0.07-0.205-0.139
			c0-0.07,0.137-0.07,0.273-0.07h3.487c0.136,0,0.205,0,0.205,0.07c0,0.068-0.137,0.139-0.344,0.277
			c-1.024,0.484-0.819,1.939-0.819,3.328v9.703C65.491,37,65.012,37,64.944,37h-0.068c-0.067,0-0.273-0.207-0.411-0.414
			L53.938,26.119V32.91L53.938,32.91z"/>
		<path fill-rule="evenodd" clip-rule="evenodd" fill="#FFFFFF" d="M1.162,32.98c0.546-0.971,0.41-0.971,0.546-0.971
			c0.137,0,0.137,0.623,0.206,0.834c0.41,2.217,1.845,2.771,2.939,2.701c1.436-0.07,2.188-1.178,2.188-2.564v-7.07
			c0-1.318-0.137-2.012-0.888-2.219c-0.137,0-0.342-0.07-0.342-0.139c0-0.07,0.205-0.139,0.41-0.139c0.341,0,1.367,0,2.051,0
			c0.615,0,1.64,0,1.914,0c0.137,0,0.206,0.068,0.206,0.139c0,0.068-0.137,0.139-0.273,0.207c-0.411,0.139-0.685,0.348-0.685,1.527
			v6.932c0,2.217-1.708,4.574-5.195,4.574c-1.026,0-2.735-0.277-4.239-1.594L1.162,32.98L1.162,32.98z"/>
		<path fill-rule="evenodd" clip-rule="evenodd" fill="#FFFFFF" d="M73.285,32.844c0,2.01,0.068,3.047,1.025,3.533
			c0.137,0.068,0.272,0.068,0.272,0.139s-0.136,0.07-0.478,0.07h-3.557c-0.135,0-0.204,0-0.204-0.07c0,0,0.069-0.07,0.138-0.07
			c1.434-0.623,1.299-2.217,1.299-3.602v-5.617c0-2.635,0-3.188-0.616-3.467c-0.272-0.068-0.409-0.139-0.409-0.207
			c0-0.07,0.068-0.139,0.342-0.139h3.485l8.683,9.012v-4.645c0.068-2.012,0.273-3.535-1.025-4.09
			c-0.137-0.07-0.137-0.139-0.137-0.139c0-0.139,0.068-0.139,0.273-0.139h3.418c0.137,0,0.205,0,0.205,0.068
			c0,0.07-0.137,0.209-0.342,0.277c-1.025,0.486-0.82,1.941-0.82,3.328v9.705c0,0.139-0.479,0.139-0.547,0.139l0,0
			c-0.137,0-0.273-0.209-0.479-0.346L73.285,26.049V32.844L73.285,32.844z"/>
		<path fill-rule="evenodd" clip-rule="evenodd" fill="#FFFFFF" d="M39.035,32.494c-0.889-0.137-1.778-0.623-2.735-1.109
			c-0.957-0.484-1.845-0.9-2.871-1.107c-1.504-0.277-4.17,0.555-4.786,1.871c0,0,1.915-0.832,3.624-0.553
			c0.889,0.137,1.64,0.623,2.461,1.037c0.82,0.486,1.777,0.902,2.939,1.18c2.666,0.484,4.101-0.625,4.922-1.941
			C42.59,31.871,40.471,32.773,39.035,32.494L39.035,32.494z"/>
		<path fill-rule="evenodd" clip-rule="evenodd" fill="#FFFFFF" d="M20.098,24.385c2.667,0,4.375,2.773,4.375,5.822
			c0,2.844-1.298,5.408-4.717,5.408c-2.598,0-4.375-2.705-4.375-5.824C15.382,27.018,16.681,24.385,20.098,24.385L20.098,24.385z
			 M20.098,22.93c-4.169,0-7.725,2.771-7.725,7.207c0,4.23,3.282,6.934,7.383,6.934c4.239,0,7.725-2.773,7.725-7.141
			C27.481,25.633,24.27,22.93,20.098,22.93L20.098,22.93z"/>
	</g>
</g>
</svg>
