<?xml version="1.0" encoding="utf-8"?>
<!-- Generator: Adobe Illustrator 16.0.0, SVG Export Plug-In . SVG Version: 6.00 Build 0)  -->
<!DOCTYPE svg PUBLIC "-//W3C//DTD SVG 1.1//EN" "http://www.w3.org/Graphics/SVG/1.1/DTD/svg11.dtd">
<svg version="1.1" id="Layer_1" xmlns="http://www.w3.org/2000/svg" xmlns:xlink="http://www.w3.org/1999/xlink" x="0px" y="0px"
	 width="86px" height="60px" viewBox="0 0 86 60" enable-background="new 0 0 86 60" xml:space="preserve">
<g>
	<g>
		<path fill="#FFFFFF" d="M15.872,50.435v-1.459h-0.13c-0.635-0.008-3.765-0.139-5.542-1.879c-0.843-0.824-1.255-1.871-1.26-3.205
			l1.981-27.746l12.991,28.797l13.688-31.59l2.17,30.539c-0.021,3.904-5.069,4.939-5.838,5.074v1.469H54v-1.459
			c-6.043,0-7.041-4.764-7.119-5.195l-2.187-29.885l-0.013-0.09c0-0.006-0.072-0.541,0.398-1.115
			c1.185-1.445,4.383-1.662,6.184-1.662V9.569H37.649L26.848,34.495L15.613,9.569H2.717c-0.339-0.006-0.587-0.004-0.71,0v1.459
			h0.685c2.064,0.049,5.915,0.516,6.965,2.34L7.491,43.681C5.62,47.554,0.844,48.772,0,48.96v1.475H15.872L15.872,50.435z
			 M4.099,48.976c1.006-0.537,2.059-1.262,2.982-2.217c0.432,0.961,1.09,1.682,1.851,2.217H4.099z M23.885,41.333L11.062,12.907
			c-0.379-0.803-1.036-1.412-1.827-1.879h4.535l11.869,26.258L23.885,41.333z M38.096,48.976c1.702-1.041,3.134-2.682,3.134-5.107
			v-0.027l-2.331-32.812h4.917c-0.349,0.236-0.646,0.5-0.888,0.795c-0.811,0.986-0.729,1.955-0.691,2.201l2.188,29.889l0.006,0.053
			c0.008,0.045,0.537,3.148,3.389,5.01H38.096z"/>
	</g>
</g>
</svg>
