<?xml version="1.0" encoding="utf-8"?>
<!-- Generator: Adobe Illustrator 16.0.0, SVG Export Plug-In . SVG Version: 6.00 Build 0)  -->
<!DOCTYPE svg PUBLIC "-//W3C//DTD SVG 1.1//EN" "http://www.w3.org/Graphics/SVG/1.1/DTD/svg11.dtd">
<svg version="1.1" id="Layer_1" xmlns="http://www.w3.org/2000/svg" xmlns:xlink="http://www.w3.org/1999/xlink" x="0px" y="0px"
	 width="86px" height="60px" viewBox="0 0 86 60" enable-background="new 0 0 86 60" xml:space="preserve">
<g>
	<g>
		<g>
			<path fill="#FFFFFF" d="M33.552,3.998c0.419,0.035,1.079,0.244,1.573,0.678c0.527,0.51,0.646,1.287,0.462,1.992
				c-0.164,0.629-0.348,0.955-0.989,1.387C33.95,8.496,33.165,8.46,33.165,8.46v2.719l1.326,1.074l-1.326,1.07v3.709
				c0,0,1.33-0.764,2.152-2.463c0,0,0.033-0.096,0.111-0.273c0.074,0.461,0.031,1.385-0.486,2.566
				c-0.389,0.895-1.095,1.758-1.984,2.25c-1.571,0.867-2.751,0.951-4.015,0.689c-1.479-0.309-2.825-1.135-3.745-2.588
				c-0.643-1.021-0.932-2.209-0.905-3.492c0.053-2.508,1.918-4.67,4.075-5.484c0.263-0.096,0.368-0.162,0.739-0.193
				c-0.17,0.117-0.369,0.264-0.612,0.426c-0.695,0.461-1.292,1.367-1.544,2.066l4.185-1.865v5.854l-3.374,1.686
				c0.384,0.539,1.551,1.344,2.552,1.455c1.698,0.188,2.697-0.553,2.697-0.553l-0.001-3.789l-1.317-1.07l1.318-1.07V8.46
				c-0.718-0.086-1.592-0.324-2.103-0.451c-0.751-0.184-3.253-0.885-3.646-0.943c-0.394-0.059-0.878-0.041-1.172,0.221
				c-0.293,0.266-0.476,0.73-0.35,1.15c0.07,0.238,0.234,0.377,0.358,0.51c0,0-0.144-0.012-0.408-0.168
				c-0.471-0.283-0.831-0.84-0.874-1.525c-0.054-0.891,0.314-1.699,1.052-2.244c0.643-0.41,1.37-0.678,2.215-0.559
				c1.232,0.178,2.888,0.875,4.365,1.229c0.572,0.139,1.016,0.184,1.417-0.049c0.188-0.133,0.517-0.48,0.249-0.949
				c-0.314-0.539-0.917-0.525-1.427-0.625C33.125,3.966,33.224,3.966,33.552,3.998z M28.577,15.628v-5.65l-1.7,0.762
				c0,0-0.434,0.969-0.359,2.379c0.059,1.098,0.675,2.412,1.148,2.963L28.577,15.628z"/>
			<path fill="#FFFFFF" d="M49.783,9.705c0,0-1.279,0.781-2.144,1.291c-0.861,0.51-2.019,1.08-2.019,1.08v5.391l-0.771,0.615
				l0.104,0.123l0.751-0.609l2.358,2.131l4.1-3.244l-0.099-0.119l-2.265,1.777l-1.862-1.742v-0.65l3.741-2.75L49.783,9.705z
				 M49.838,14.156l-1.901,1.395v-4.629L49.838,14.156z"/>
			<g>
				<path fill="#FFFFFF" d="M39.041,21.755c0.537,0.133,1.486,0.205,2.631-0.367c1.268-0.633,1.906-1.98,1.896-3.363l0.055-1.953
					v-4.273l0.81-0.619l-0.095-0.121l-0.797,0.605l-1.84-2.051l-2.361,2.029V4.751l-2.948,2.279
					c0.129,0.088,0.548,0.162,0.562,0.752v9.648l-1.251,0.926l0.086,0.129l0.604-0.449l1.68,1.562l2.643-2.104l-0.095-0.123
					l-0.622,0.494l-0.658-0.652l0.008-5.375l0.77-0.66l1.148,1.43c0,0-0.004,3.48,0.001,4.639c-0.009,1.229-0.012,2.768-0.661,3.512
					C39.959,21.505,39.698,21.56,39.041,21.755z"/>
			</g>
		</g>
		<g>
			<g>
				<path fill="#FFFFFF" d="M2.918,38.521c-1.057-0.125-1.5-0.762-1.488-1.268c0.009-0.326,0.302-0.959,0.944-1.049
					c0.641-0.082,1.296,0.217,1.852,0.867l2.439-2.695l-0.117-0.109l-0.656,0.734c-0.666-0.754-1.61-1.234-2.551-1.371v-8.214
					L9.679,36.96c0,0,0.062,0.129,0.322,0.129c0.224,0.006,0.17-0.182,0.17-0.182l-0.002-11.615
					c0.516-0.021,1.304-0.309,1.683-0.695c1.222-1.256,0.723-2.621,0.588-2.756c-0.074,0.6-0.532,1.197-1.3,1.203
					c-1.006,0.002-1.621-0.74-1.621-0.74l-2.438,2.777l0.117,0.107l0.696-0.797c0.854,0.785,1.477,0.857,2.122,0.9v6.74L5.314,23.49
					c-0.425-0.703-1.072-1.324-2.089-1.33c-1.169-0.006-2.003,1.02-2.105,1.904C1.009,25.07,1.135,25.3,1.135,25.3
					s0.17-1.119,0.861-1.104c0.619,0.008,0.94,0.576,1.191,1.004v2.475c-0.64,0.049-2.303,0.115-2.407,1.85
					c-0.005,0.643,0.395,1.318,0.744,1.546c0.45,0.299,0.802,0.289,0.802,0.289s-0.54-0.287-0.379-0.857
					c0.146-0.502,1.204-0.586,1.242-0.375v3.49c-0.51-0.004-2.14,0.051-2.872,1.449c-0.444,0.838-0.416,1.785,0.056,2.449
					C0.758,38.062,1.552,38.753,2.918,38.521z"/>
			</g>
			<path fill="#FFFFFF" d="M16.304,26.953c0,0-1.283,0.781-2.145,1.293c-0.864,0.51-2.018,1.078-2.018,1.078v5.392l-0.771,0.615
				l0.103,0.123l0.752-0.609l2.356,2.129l4.101-3.242l-0.098-0.119l-2.267,1.777l-1.86-1.744v-0.648l3.739-2.75L16.304,26.953z
				 M16.357,31.405L14.458,32.8v-4.63L16.357,31.405z"/>
			<g>
				<path fill="#FFFFFF" d="M22.033,37.017l-2.009-1.668l-0.884,0.639l-0.087-0.123l0.896-0.656v-4.669
					c0.043-1.922-1.76-1.445-1.663-3.486c0.044-0.896,0.911-1.572,1.35-1.795c0.466-0.238,0.976-0.238,0.976-0.238
					s-0.825,0.516-0.625,1.254c0.309,1.141,2.258,1.242,2.293,2.76v5.296l1.44,1.154l0.379-0.299v-5.734l-0.777-0.77l1.999-1.766
					l1.827,1.615l-0.697,0.754v5.082l1.708,1.41l0.306-0.191v-6.119l-0.779-0.727l2.005-1.83l1.87,1.545l0.75-0.66l0.1,0.117
					l-1.683,1.477v4.984l-4.305,2.656l-2.203-1.742L22.033,37.017z"/>
			</g>
		</g>
		<g>
			<path fill="#FFFFFF" d="M51.23,45.286c0,0-1.283,0.781-2.144,1.291c-0.861,0.51-2.021,1.08-2.021,1.08v5.391l-0.771,0.617
				l0.103,0.121l0.753-0.609l2.358,2.131l4.098-3.244l-0.096-0.119l-2.265,1.779l-1.864-1.744l0.002-0.65l3.741-2.75L51.23,45.286z
				 M51.287,49.739l-1.904,1.393v-4.631L51.287,49.739z"/>
			<g>
				<g>
					<polygon fill="#FFFFFF" points="31.987,47.544 32.087,47.659 32.86,46.997 34.005,48.292 34.005,52.749 33.45,53.255 
						35.235,55.274 37.066,53.47 36.313,52.687 36.313,47.3 36.769,46.935 38.037,48.415 38.037,52.856 37.561,53.331 
						39.244,55.224 41.04,53.425 40.379,52.733 40.362,47.319 40.846,46.927 42.169,48.384 42.169,52.8 41.734,53.235 
						43.592,55.259 46.084,52.956 45.98,52.843 45.372,53.401 44.443,52.37 44.443,47.327 45.341,46.646 45.246,46.522 
						44.348,47.206 42.652,45.304 40.229,47.22 38.529,45.374 36.189,47.202 34.473,45.38 					"/>
				</g>
			</g>
			<g>
				<polygon fill="#FFFFFF" points="26.913,47.405 27.015,47.519 27.666,46.958 28.688,48.165 28.688,53.259 27.969,53.888 
					28.068,54.003 28.821,53.358 30.47,55.259 32.846,53.136 32.747,53.019 32.046,53.636 31.062,52.501 31.062,47.521 
					31.892,46.804 31.791,46.687 31.003,47.364 29.269,45.345 				"/>
				<polygon fill="#FFFFFF" points="27.6,43.188 29.389,41.55 30.845,43.161 29.047,44.794 				"/>
			</g>
			<path fill="#FFFFFF" d="M25.19,39.579c0.42,0.035,1.079,0.246,1.574,0.68c0.527,0.51,0.648,1.285,0.462,1.99
				c-0.163,0.629-0.346,0.955-0.987,1.387c-0.65,0.443-1.432,0.406-1.432,0.406v2.721l1.325,1.072l-1.325,1.068v3.711
				c0,0,1.327-0.764,2.149-2.463c0,0,0.037-0.096,0.113-0.273c0.07,0.459,0.03,1.385-0.486,2.568
				c-0.389,0.893-1.096,1.756-1.984,2.248c-1.573,0.867-2.752,0.951-4.017,0.689c-1.481-0.307-2.826-1.135-3.743-2.586
				c-0.645-1.023-0.932-2.209-0.906-3.492c0.05-2.51,1.92-4.672,4.078-5.484c0.258-0.098,0.366-0.164,0.736-0.193
				c-0.171,0.115-0.366,0.264-0.612,0.424c-0.694,0.461-1.291,1.369-1.543,2.066l4.184-1.863v5.852L19.4,51.792
				c0.385,0.539,1.553,1.344,2.552,1.457c1.7,0.188,2.699-0.555,2.699-0.555v-3.791l-1.319-1.068l1.319-1.07v-2.723
				c-0.719-0.086-1.591-0.324-2.104-0.449c-0.751-0.186-3.254-0.887-3.645-0.945c-0.396-0.057-0.879-0.039-1.172,0.221
				c-0.295,0.268-0.477,0.73-0.351,1.152c0.07,0.236,0.234,0.375,0.355,0.51c0,0-0.142-0.012-0.403-0.17
				c-0.474-0.281-0.836-0.84-0.876-1.525c-0.056-0.891,0.315-1.699,1.054-2.244c0.642-0.41,1.369-0.678,2.215-0.559
				c1.231,0.176,2.887,0.877,4.365,1.229c0.572,0.139,1.016,0.184,1.416-0.049c0.188-0.133,0.515-0.48,0.248-0.947
				c-0.315-0.541-0.917-0.527-1.426-0.627C24.766,39.55,24.861,39.55,25.19,39.579z M20.217,51.21v-5.648l-1.7,0.762
				c0,0-0.433,0.967-0.357,2.377c0.058,1.098,0.674,2.412,1.147,2.963L20.217,51.21z"/>
			<path fill="#FFFFFF" d="M55.791,56.009c-0.273,0.08-1.449-0.209-1.734-1.434c-0.276-1.188,0.554-1.996,1.802-3.268l-1.476-1.35
				v-2.574c0,0,1.086-0.543,1.936-1.072c0.848-0.535,1.719-1.107,1.719-1.107s0.635,0.797,1.351,0.736
				c1.125-0.1,1.07-0.984,1.038-1.193c0.191,0.344,0.705,1.359-1.268,3.633l1.605,1.295v3.346c0,0-1.863,0.971-3.63,2.26
				c0,0-0.983-1.234-1.839-0.643C54.715,55.036,54.982,55.708,55.791,56.009z M54.402,53.425c0,0,0.849-1.4,2.305-1.096
				c1.398,0.285,1.883,1.762,1.883,1.762v-3.396l-0.975-0.846C56.546,50.923,54.643,52.481,54.402,53.425z M56.564,46.331v2.676
				l0.893,0.779c0,0,1.936-1.553,2.64-2.988c0,0-0.872,1.182-2.041,0.82C57.074,47.315,56.564,46.331,56.564,46.331z"/>
		</g>
		<g>
			<path fill="#FFFFFF" d="M54.158,29.179l0.724-0.666l0.103,0.117l-0.705,0.654v5.318c0,0-1.336,0.713-2.27,1.236
				c-0.932,0.531-1.933,1.148-1.933,1.148l-2.454-2.07l-0.647,0.568l-0.105-0.121l0.683-0.594v-5.72h0.008
				c0,0,1.158-0.521,2.137-1.072c0.873-0.492,1.85-1.066,1.85-1.066L54.158,29.179z M49.883,33.866l2.072,1.881v-5.746l-2.072-1.916
				V33.866z"/>
			<g>
				<path fill="#FFFFFF" d="M58.98,28.642l1.562-1.596c0,0,0.214,0.189,0.416,0.289c0.113,0.057,0.586,0.297,1.018,0.061
					c0.236-0.129,0.268-0.162,0.527-0.406c0.051,1.24-0.543,2.109-1.285,2.471c-0.303,0.148-1.191,0.434-2.119-0.699v5.726
					l0.986,0.869l0.824-0.68l0.096,0.119l-2.58,2.152l-1.963-1.787l-0.704,0.668l-0.118-0.123l1.076-0.971l0.008-4.941l-0.826-1.096
					l-0.707,0.625l-0.102-0.111l2.498-2.25L58.98,28.642z"/>
			</g>
			<g>
				<path fill="#FFFFFF" d="M65.559,31.028l2.882-4.193c0,0,0.379,0.447,1.043,0.621c0.897,0.234,1.687-0.633,1.687-0.633
					c-0.152,1.119-0.723,2.396-1.895,2.588c-1.035,0.172-1.996-0.631-1.996-0.631l-0.186,0.287l4.001,6.044l0.8-0.701L72,34.528
					l-2.748,2.398L65.559,31.028z"/>
				<path fill="#FFFFFF" d="M63.178,25.425c0-0.904-0.372-1.463-0.857-1.424l3.145-2.205v12.5l0,0l0.83,0.875l0.627-0.545
					l0.102,0.117l-2.533,2.215l-1.719-1.615l-0.684,0.605l-0.111-0.117l1.201-1.045V25.425z"/>
			</g>
			<path fill="#FFFFFF" d="M36.891,25.218c0-0.838-0.344-1.314-0.9-1.326c-0.798-0.016-0.989,1.109-0.989,1.109
				s-0.146-0.867,0.583-1.656c0.407-0.443,1.17-1.059,2.362-0.773c1.231,0.297,1.584,1.252,1.584,2.098v11.632
				c0,0,0.463,0.055,0.784,0.123c0.368,0.08,0.721,0.18,0.721,0.18V22.578h0.151v1.893l2.527-2.031l1.848,1.643l0.863-0.75
				l0.099,0.119l-0.901,0.777V35.04c-0.046,0.709-0.158,1.426-0.824,1.838c-1.485,0.885-3.279-0.135-4.876-0.367
				c-1.187-0.174-3.046-0.4-3.512,0.689c-0.155,0.357-0.144,0.91,0.395,1.266c1.079,0.725,5.882-1.209,7.532-0.439
				c1.502,0.699,1.496,1.807,1.266,2.562c-0.393,1.428-2.193,1.678-2.193,1.678s0.881-0.51,0.63-1.355
				c-0.128-0.432-0.419-0.551-1.361-0.445c-2.061,0.232-4.521,1.232-6.175,0.539c-0.853-0.354-1.453-1.422-1.397-2.467
				c0.042-1.508,1.785-2.104,1.785-2.104v-5.572c-0.052-0.223-0.98-0.16-1.183,0.246c-0.309,0.619,0.383,0.906,0.383,0.906
				s-0.573,0.08-1.054-0.475c-0.235-0.27-0.725-1.218-0.09-2.095c0.523-0.723,1.151-0.85,1.944-0.938V25.218z M41.188,36.644
				c0,0,0.736,0.197,1.27-0.242c0.592-0.49,0.531-1.176,0.531-1.176v-4.332c0,0-0.346-0.439-0.893-0.439
				c-0.546,0-0.908,0.451-0.908,0.451V36.644z M42.988,25.273l-1.215-1.066l-0.586,0.463v4.014c0,0,0.362,0.457,0.908,0.457
				c0.547,0,0.893-0.439,0.893-0.439V25.273z M42.988,28.941c0,0-0.347,0.396-0.897,0.396c-0.542,0-0.903-0.396-0.903-0.396v1.709
				c0,0,0.361-0.398,0.903-0.398c0.551,0,0.897,0.379,0.897,0.379V28.941z"/>
		</g>
	</g>
</g>
</svg>
