<?xml version="1.0" encoding="utf-8"?>
<!-- Generator: Adobe Illustrator 16.0.0, SVG Export Plug-In . SVG Version: 6.00 Build 0)  -->
<!DOCTYPE svg PUBLIC "-//W3C//DTD SVG 1.1//EN" "http://www.w3.org/Graphics/SVG/1.1/DTD/svg11.dtd">
<svg version="1.1" id="Layer_1" xmlns="http://www.w3.org/2000/svg" xmlns:xlink="http://www.w3.org/1999/xlink" x="0px" y="0px"
	 width="86px" height="60px" viewBox="0 0 86 60" enable-background="new 0 0 86 60" xml:space="preserve">
<g>
	<g>
		<path fill="#FFFFFF" d="M35.318,24.682l-1.721-3.367L30,22.48l-3.598-1.166l-1.72,3.367l-3.366,1.721L22.479,30l-1.164,3.6
			l3.366,1.719l1.72,3.365L30,37.521l3.598,1.162l1.72-3.365l3.367-1.719L37.521,30l1.164-3.598L35.318,24.682z M37.311,33.029
			l-2.834,1.447l-1.448,2.834L30,36.332l-3.029,0.979l-1.447-2.834l-2.834-1.447L23.669,30l-0.979-3.027l2.834-1.449l1.447-2.834
			L30,23.67l3.028-0.98l1.447,2.834l2.835,1.449L36.331,30L37.311,33.029z"/>
		<path fill="#FFFFFF" d="M59.748,26.178c-0.024-0.191-0.045-0.383-0.073-0.572c-0.028-0.191-0.062-0.381-0.093-0.572
			c-0.735-4.393-2.426-8.463-4.854-11.994c-0.109-0.158-0.224-0.314-0.336-0.471c-0.113-0.158-0.221-0.318-0.336-0.475
			C52.42,9.9,50.486,7.945,48.323,6.27c-0.152-0.117-0.302-0.238-0.456-0.352c-0.154-0.117-0.314-0.225-0.473-0.338
			c-3.488-2.492-7.529-4.254-11.901-5.066c-0.19-0.037-0.382-0.072-0.573-0.104c-0.189-0.031-0.38-0.064-0.571-0.092
			C32.928,0.111,31.477,0,30,0c-1.296,0-2.57,0.092-3.823,0.252c-0.19,0.023-0.382,0.045-0.571,0.072
			c-0.192,0.029-0.382,0.062-0.573,0.094c-4.393,0.736-8.464,2.426-11.993,4.854c-0.16,0.109-0.316,0.225-0.473,0.336
			c-0.157,0.113-0.318,0.221-0.473,0.336c-2.193,1.639-4.15,3.57-5.825,5.734c-0.117,0.15-0.238,0.301-0.353,0.455
			c-0.116,0.154-0.224,0.314-0.337,0.473c-2.492,3.488-4.254,7.529-5.067,11.9c-0.036,0.191-0.071,0.383-0.103,0.574
			s-0.064,0.381-0.092,0.572C0.112,27.072,0,28.523,0,30c0,1.295,0.092,2.57,0.252,3.822c0.024,0.191,0.045,0.383,0.073,0.572
			c0.028,0.191,0.062,0.381,0.093,0.572c0.735,4.393,2.425,8.463,4.853,11.992c0.109,0.16,0.224,0.316,0.337,0.475
			c0.112,0.156,0.221,0.316,0.336,0.473c1.636,2.191,3.569,4.15,5.732,5.824c0.152,0.117,0.301,0.238,0.456,0.352
			c0.155,0.115,0.315,0.225,0.473,0.338c3.489,2.492,7.529,4.256,11.902,5.066c0.191,0.035,0.381,0.07,0.573,0.104
			c0.19,0.031,0.381,0.064,0.572,0.09C27.072,59.889,28.523,60,30,60c1.296,0,2.57-0.092,3.822-0.252
			c0.191-0.023,0.383-0.045,0.572-0.074c0.191-0.027,0.382-0.061,0.572-0.092c4.393-0.736,8.464-2.426,11.992-4.854
			c0.16-0.109,0.316-0.225,0.475-0.336c0.156-0.113,0.316-0.223,0.473-0.338c2.192-1.637,4.149-3.568,5.824-5.732
			c0.117-0.152,0.238-0.301,0.352-0.455c0.116-0.154,0.225-0.316,0.338-0.473c2.491-3.488,4.254-7.529,5.066-11.902
			c0.036-0.189,0.071-0.381,0.104-0.572c0.031-0.189,0.062-0.379,0.092-0.572C59.888,32.928,60,31.477,60,30
			C60,28.705,59.908,27.43,59.748,26.178z M45.055,41.533l-0.261,3.26l-3.532,0.283l-0.601,0.047L40.06,45.17l-0.916,0.074
			l1.266-4.834l4.836-1.268L45.15,40.33l-0.048,0.602L45.055,41.533z M32.488,48.801l-2.489,2.121l-2.696-2.299l-0.459-0.391
			l-0.458-0.391l-0.7-0.598L30,44.721l4.314,2.523l-0.907,0.773l-0.459,0.391L32.488,48.801z M14.876,40.66l-0.048-0.6l-0.073-0.918
			l4.836,1.268l1.265,4.834l-1.187-0.096l-0.602-0.047l-0.601-0.049l-3.26-0.26l-0.282-3.531L14.876,40.66z M14.945,18.467
			l0.26-3.262l3.532-0.281l0.602-0.049l0.602-0.047l0.916-0.074l-1.266,4.836l-4.836,1.266l0.095-1.186l0.048-0.602L14.945,18.467z
			 M27.511,11.199L30,9.076l2.697,2.299l0.459,0.393l0.459,0.391l0.699,0.598L30,15.279l-4.314-2.523l0.907-0.773l0.459-0.393
			L27.511,11.199z M45.124,19.34l0.048,0.6l0.073,0.916l-4.836-1.266l-1.267-4.836l1.188,0.096l0.602,0.047l0.601,0.049l3.261,0.262
			l0.282,3.531L45.124,19.34z M52.336,26.033l-2.437-2.785l-1.289,2.293l-0.759-0.891l-0.778-0.914l-0.51-0.598l-0.062-0.783
			l-0.096-1.195l-0.071-0.895l2.88,0.807l-0.246-3.693l3.368,3.369V26.033z M45.464,36.404l-0.123,1.543l-5.858,1.535l-1.534,5.857
			l-1.544,0.123l-1.178,1.004L30,43.41l-5.227,3.057l-1.177-1.004l-1.545-0.123l-1.533-5.857l-5.859-1.535l-0.123-1.543
			l-1.003-1.178L16.59,30l-3.058-5.229l1.003-1.178l0.123-1.543l5.859-1.533l1.533-5.857l1.545-0.123l1.177-1.004L30,16.592
			l5.227-3.059l1.178,1.004l1.544,0.123l1.534,5.857l5.858,1.533l0.123,1.543l1.003,1.178L43.41,30l3.057,5.227L45.464,36.404z
			 M39.297,11.154l0.709,2.533l-1.166-0.094L37.645,13.5l-0.784-0.062l-0.599-0.512l-0.912-0.777l-0.683-0.582l2.606-1.465
			l-2.786-2.439h4.766l3.738,3.738L39.297,11.154z M23.248,10.102l2.293,1.289l-0.89,0.758l-0.913,0.779l-0.598,0.51L22.355,13.5
			l-1.195,0.094l-0.895,0.072l0.807-2.881l-3.695,0.248l3.369-3.371h5.288L23.248,10.102z M13.688,19.994l-0.093,1.166l-0.096,1.195
			l-0.062,0.783l-0.51,0.598l-0.778,0.914l-0.582,0.682l-1.466-2.605l-2.437,2.785v-4.764l3.738-3.738l-0.247,3.693L13.688,19.994z
			 M11.768,26.844l0.391-0.459l0.597-0.699L15.279,30l-2.524,4.314l-0.773-0.908l-0.391-0.459L11.2,32.488L9.078,30l2.298-2.697
			L11.768,26.844z M7.664,33.967l2.437,2.785l1.29-2.293l0.758,0.891l0.778,0.912l0.509,0.598l0.062,0.785l0.096,1.195l0.071,0.895
			l-2.88-0.809l0.247,3.695l-3.369-3.369V33.967z M20.703,48.846l-0.709-2.535l1.166,0.094l1.195,0.096l0.786,0.062l0.598,0.51
			l0.913,0.777l0.683,0.582l-2.607,1.467l2.787,2.438h-4.767L17.009,48.6L20.703,48.846z M36.752,49.898l-2.293-1.289l0.891-0.76
			l0.912-0.777l0.599-0.51l0.784-0.062l1.195-0.096l0.895-0.07l-0.807,2.879l3.694-0.246l-3.369,3.369h-5.287L36.752,49.898z
			 M46.312,40.006l0.094-1.166l0.096-1.195l0.062-0.785l0.509-0.598l0.779-0.912l0.581-0.684l1.467,2.607l2.437-2.785v4.764
			L48.6,42.99l0.246-3.695L46.312,40.006z M48.232,33.154l-0.392,0.461l-0.596,0.699L44.721,30l2.524-4.314l0.773,0.906l0.391,0.459
			l0.392,0.459L50.922,30l-2.299,2.697L48.232,33.154z M58.42,24.967l-3.303-0.188l-1.648,1.176v-5.676l-3.646-3.646l1.998-0.332
			l2.134-2.393C56.161,17.182,57.707,20.932,58.42,24.967z M53.283,12.961l-2.041,2.289l-2.402,0.4l-1.109,0.184l0.021,0.328
			l0.227,3.389l-1.74-0.488l-0.384-4.797l-0.009-0.111l-0.111-0.008l-4.526-0.363l-0.39-1.393l3.388,0.227l0.327,0.021l0.186-1.109
			l0.4-2.402l2.346-2.092C49.677,8.721,51.638,10.717,53.283,12.961z M46.529,6.354l-2.461,2.195l-0.333,1.996l-4.014-4.014h-5.155
			l1.177-1.648L35.56,1.674C39.575,2.461,43.293,4.084,46.529,6.354z M30,1.133c1.501,0,2.975,0.115,4.414,0.336l0.176,3.08
			l-1.415,1.982l-0.653,0.916l0.246,0.215l2.557,2.236l-1.576,0.887l-3.663-3.123L30,7.59l-0.085,0.072l-3.456,2.945l-1.261-0.709
			l2.556-2.236l0.247-0.215l-0.654-0.916l-1.415-1.982l0.18-3.148C27.384,1.229,28.681,1.133,30,1.133z M24.968,1.58l-0.189,3.303
			l1.176,1.648h-5.677l-3.645,3.645L16.301,8.18l-2.393-2.135C17.182,3.838,20.933,2.293,24.968,1.58z M12.96,6.717l2.29,2.043
			l0.4,2.398l0.185,1.111l0.327-0.021l3.389-0.227l-0.488,1.74l-4.797,0.383l-0.112,0.01l-0.009,0.111l-0.361,4.525l-1.392,0.391
			l0.226-3.389l0.022-0.326l-1.111-0.186l-2.401-0.4l-2.092-2.346C8.721,10.324,10.718,8.361,12.96,6.717z M6.353,13.471
			l2.195,2.461l1.997,0.334l-4.014,4.014v5.154l-1.648-1.176l-3.208,0.182C2.461,20.424,4.085,16.707,6.353,13.471z M1.132,30
			c0-1.5,0.116-2.975,0.338-4.414l3.081-0.176l1.98,1.416l0.916,0.652l0.217-0.246l2.235-2.557l0.886,1.576l-3.121,3.662L7.591,30
			l0.073,0.084l2.944,3.457l-0.709,1.26l-2.235-2.555L7.448,32l-0.917,0.654l-1.98,1.414l-3.149-0.18
			C1.229,32.615,1.132,31.318,1.132,30z M1.58,35.033l3.303,0.188l1.648-1.176v5.676l3.646,3.646L8.18,43.699l-2.135,2.393
			C3.839,42.818,2.293,39.068,1.58,35.033z M6.717,47.039l2.042-2.289l2.401-0.4l1.11-0.186l-0.022-0.326l-0.227-3.389l1.741,0.486
			l0.383,4.799l0.009,0.111l0.11,0.008l4.527,0.361l0.39,1.395l-3.388-0.227l-0.327-0.021l-0.185,1.111l-0.401,2.4l-2.346,2.092
			C10.323,51.279,8.363,49.283,6.717,47.039z M13.472,53.646l2.461-2.193l0.333-1.998l4.012,4.014h5.156l-1.176,1.648l0.183,3.209
			C20.425,57.539,16.707,55.916,13.472,53.646z M30,58.867c-1.501,0-2.975-0.115-4.413-0.338l-0.176-3.08l1.415-1.98l0.654-0.916
			l-0.246-0.217l-2.557-2.234l1.576-0.887l3.663,3.121l0.084,0.072l0.085-0.072l3.457-2.943l1.261,0.709l-2.556,2.234L32,52.553
			l0.654,0.916l1.414,1.98l-0.18,3.15C32.616,58.771,31.319,58.867,30,58.867z M35.033,58.42l0.188-3.303l-1.177-1.648h5.677
			l3.646-3.645L43.7,51.82l2.392,2.135C42.818,56.162,39.068,57.707,35.033,58.42z M47.04,53.283l-2.289-2.041L44.35,48.84
			l-0.185-1.109l-0.327,0.021l-3.389,0.225l0.488-1.74l4.797-0.383l0.111-0.008l0.009-0.111l0.362-4.525l1.393-0.391l-0.226,3.387
			l-0.022,0.328l1.109,0.186l2.402,0.4l2.092,2.346C51.279,49.676,49.283,51.637,47.04,53.283z M53.646,46.529l-2.193-2.461
			l-1.998-0.334l4.014-4.014v-5.156l1.648,1.178l3.208-0.184C57.538,39.576,55.915,43.293,53.646,46.529z M55.451,34.59
			l-1.982-1.416l-0.916-0.654l-0.217,0.248l-2.234,2.557l-0.887-1.576l3.121-3.664L52.409,30l-0.073-0.086l-2.943-3.455l0.709-1.262
			l2.234,2.555L52.553,28l0.916-0.654l1.981-1.414l3.148,0.18c0.172,1.273,0.27,2.57,0.27,3.889c0,1.5-0.116,2.975-0.338,4.414
			L55.451,34.59z"/>
	</g>
</g>
</svg>
