<?xml version="1.0" encoding="utf-8"?>
<!-- Generator: Adobe Illustrator 16.0.0, SVG Export Plug-In . SVG Version: 6.00 Build 0)  -->
<!DOCTYPE svg PUBLIC "-//W3C//DTD SVG 1.1//EN" "http://www.w3.org/Graphics/SVG/1.1/DTD/svg11.dtd">
<svg version="1.1" id="Layer_1" xmlns="http://www.w3.org/2000/svg" xmlns:xlink="http://www.w3.org/1999/xlink" x="0px" y="0px"
	 width="86px" height="60px" viewBox="0 0 86 60" enable-background="new 0 0 86 60" xml:space="preserve">
<g>
	<g>
		<g>
			<path fill="#FFFFFF" d="M0.083,30.49c0.969,0,1.763,0.1,3.053,0.1c1.39-0.025,2.059-0.049,2.63-0.074
				c0.049,0.049,0.049,0.322,0,0.373c-0.62,0.123-0.794,0.148-1.017,0.248c-0.323,0.148-0.421,0.422-0.248,1.066
				c0.596,2.455,2.109,7.617,2.953,10.422c0,0,0.05-0.023,0.074-0.051c0.869-2.406,3.401-9.576,3.872-11.414
				c0.173,0.025,0.769,0,0.918-0.023c0.446,1.887,3.2,9.553,3.995,11.562c0.025,0,0.075-0.025,0.1-0.025
				c0.621-1.959,2.407-7.84,2.829-9.9c0.149-0.77,0.199-1.414-0.446-1.613c-0.397-0.1-0.695-0.172-1.39-0.271
				c-0.049-0.074-0.075-0.324,0-0.373c0.521,0,1.712,0.074,2.681,0.074c1.339,0,1.985-0.049,2.48-0.074
				c0.075,0.049,0.075,0.322,0,0.373c-0.595,0.123-0.942,0.197-1.19,0.297c-0.521,0.248-0.769,0.619-1.117,1.613
				c-0.993,2.854-3.351,10.57-4.045,13.102c-0.124,0-0.793-0.023-0.942,0.025c-0.62-2.184-2.855-8.537-3.996-11.662
				c-0.025,0-0.074,0-0.099,0.049c-0.894,2.58-3.35,9.504-3.971,11.564c-0.099-0.025-0.868-0.025-1.017,0.023
				c-0.72-3.027-2.854-10.645-3.672-12.977c-0.423-1.291-0.67-1.613-1.366-1.812c-0.396-0.1-0.644-0.15-1.116-0.223
				C-0.017,30.838-0.017,30.541,0.083,30.49z"/>
			<path fill="#FFFFFF" d="M20.801,34.883c0.422,0,1.415,0.074,2.383,0.074h3.722c1.018,0,1.612-0.023,1.961-0.1
				c0,0,0.073,0.051,0.073,0.076c-0.173,0.545-0.347,1.762-0.371,2.555c-0.051,0.049-0.323,0.049-0.373,0
				c-0.049-0.398-0.124-0.893-0.224-1.143c-0.124-0.494-0.248-0.719-0.918-0.768c-0.446-0.051-2.407-0.025-2.656,0
				c-0.123,0.023-0.198,0.246-0.198,0.322c-0.024,1.217-0.05,3.424-0.024,3.82c0,0.076,0.049,0.125,0.1,0.125
				c0.818,0,2.109,0,2.63-0.025c0.546-0.023,0.646-0.371,0.769-0.719c0.074-0.225,0.124-0.471,0.149-0.695
				c0.05-0.025,0.373-0.025,0.397,0.025c-0.025,0.248-0.1,1.289-0.1,1.762c0,0.348,0.049,1.34,0.049,1.762
				c-0.073,0.074-0.347,0.074-0.421,0c-0.05-0.348-0.099-0.57-0.148-0.744c-0.099-0.273-0.223-0.57-0.695-0.621
				c-0.546-0.049-1.91-0.049-2.655-0.049c-0.025,0-0.074,0.123-0.074,0.148c0,0.447,0,2.406,0.024,3.475
				c0.025,0.57,0.298,0.795,0.422,0.818c0.422,0.1,1.217,0.123,2.383,0.123c1.017,0,1.241-0.246,1.513-0.52
				c0.398-0.447,0.746-1.092,1.019-1.787c0.074-0.025,0.347,0.051,0.372,0.148c-0.049,0.422-0.521,2.035-0.867,2.656
				c-0.051,0.123-0.2,0.174-0.671,0.174c-0.943,0-2.506-0.051-5.162-0.051c-1.141,0-2.034,0.076-2.803,0.076
				c-0.05-0.051-0.05-0.35,0-0.398c0.471-0.023,1.042-0.1,1.364-0.199c0.422-0.123,0.571-0.271,0.597-0.992
				c0.024-0.645,0.024-2.357,0.024-4.393c0-1.688-0.024-3.152-0.024-3.475c-0.051-0.568-0.15-0.744-0.571-0.891
				c-0.249-0.076-0.671-0.15-0.994-0.176C20.726,35.23,20.726,34.908,20.801,34.883z"/>
			<path fill="#FFFFFF" d="M32.837,45.033c0.446,0.348,1.14,0.521,1.761,0.521c1.092,0,2.06-0.572,2.06-1.861
				c0-1.02-0.471-1.688-2.432-2.707c-1.811-0.967-2.68-1.811-2.68-3.373c0-1.961,1.787-2.979,3.722-2.979
				c0.819,0,1.241,0.074,1.688,0.123c0.397,0.051,0.869,0.125,1.043,0.125c-0.1,0.545-0.249,1.686-0.298,2.631
				c-0.049,0.051-0.348,0.074-0.372,0c-0.075-1.092-0.323-1.637-0.721-1.961c-0.372-0.297-0.943-0.445-1.612-0.445
				c-1.266,0-1.886,0.867-1.886,1.811s0.497,1.537,1.216,1.959c0.844,0.498,1.513,0.844,2.258,1.266
				c0.918,0.521,1.786,1.291,1.786,2.656c0,1.738-1.563,3.25-4.095,3.25c-1.017,0-2.356-0.322-2.729-0.545
				c-0.148-0.248-0.372-2.135-0.396-2.754c0.024-0.051,0.297-0.125,0.371-0.1C31.844,43.891,32.291,44.66,32.837,45.033z"/>
			<path fill="#FFFFFF" d="M42.737,45.256c0.521-0.1,0.696-0.396,0.72-1.24c0.051-0.77,0.076-5.535,0.076-8.338
				c0-0.051-0.076-0.125-0.125-0.125c-0.323-0.025-1.712,0-2.085,0.025c-0.397,0.023-0.695,0.246-0.918,0.645
				s-0.446,0.967-0.719,1.688c-0.05,0-0.348-0.049-0.373-0.1c0.149-0.721,0.297-2.332,0.347-3.076c0-0.025,0.05-0.051,0.1-0.025
				c0.472,0.199,0.942,0.225,1.364,0.225h6.849c0.597,0,0.993,0.023,1.589-0.199c0.023,0,0.074,0.023,0.074,0.074
				c-0.174,0.619-0.273,2.209-0.348,3.125c-0.049,0.051-0.396,0.076-0.396,0c-0.075-0.719-0.223-1.289-0.348-1.611
				c-0.199-0.498-0.472-0.67-0.869-0.695c-0.645-0.049-1.91-0.074-2.283-0.049c-0.049,0.023-0.074,0.074-0.074,0.148
				c0,2.506,0,7.816,0.074,8.734c0.025,0.373,0.174,0.67,0.572,0.795c0.271,0.074,0.594,0.1,1.066,0.172
				c0.074,0.025,0.049,0.35-0.025,0.375c-0.521,0-1.613-0.076-2.754-0.076c-1.266,0-2.234,0.1-2.705,0.076
				c-0.074-0.051-0.074-0.35,0-0.375C42.118,45.355,42.49,45.33,42.737,45.256z"/>
			<path fill="#FFFFFF" d="M50.531,34.883c0.421,0,1.413,0.074,2.381,0.074h3.723c1.018,0,1.613-0.023,1.961-0.1
				c0,0,0.073,0.051,0.073,0.076c-0.173,0.545-0.347,1.762-0.371,2.555c-0.05,0.049-0.323,0.049-0.373,0
				c-0.05-0.398-0.124-0.893-0.224-1.143c-0.123-0.494-0.248-0.719-0.918-0.768c-0.447-0.051-2.406-0.025-2.654,0
				c-0.124,0.023-0.199,0.246-0.199,0.322c-0.025,1.217-0.049,3.424-0.025,3.82c0,0.076,0.05,0.125,0.101,0.125
				c0.818,0,2.109,0,2.63-0.025c0.546-0.023,0.646-0.371,0.77-0.719c0.074-0.225,0.123-0.471,0.148-0.695
				c0.05-0.025,0.372-0.025,0.397,0.025c-0.025,0.248-0.1,1.289-0.1,1.762c0,0.348,0.05,1.34,0.05,1.762
				c-0.074,0.074-0.348,0.074-0.422,0c-0.049-0.348-0.1-0.57-0.148-0.744c-0.1-0.273-0.224-0.57-0.695-0.621
				c-0.545-0.049-1.912-0.049-2.655-0.049c-0.025,0-0.075,0.123-0.075,0.148c0,0.447,0,2.406,0.025,3.475
				c0.024,0.57,0.298,0.795,0.422,0.818c0.422,0.1,1.216,0.123,2.383,0.123c1.018,0,1.24-0.246,1.514-0.52
				c0.396-0.447,0.744-1.092,1.018-1.787c0.074-0.025,0.347,0.051,0.371,0.148c-0.049,0.422-0.521,2.035-0.869,2.656
				c-0.048,0.123-0.197,0.174-0.669,0.174c-0.942,0-2.507-0.051-5.161-0.051c-1.143,0-2.035,0.076-2.805,0.076
				c-0.049-0.051-0.049-0.35,0-0.398c0.472-0.023,1.043-0.1,1.365-0.199c0.422-0.123,0.571-0.271,0.596-0.992
				c0.025-0.645,0.025-2.357,0.025-4.393c0-1.688-0.025-3.152-0.025-3.475c-0.05-0.568-0.149-0.744-0.572-0.891
				c-0.247-0.076-0.669-0.15-0.99-0.176C50.457,35.23,50.457,34.908,50.531,34.883z"/>
			<path fill="#FFFFFF" d="M60.605,34.883c0.421,0,1.588,0.074,2.307,0.074h3.103c2.183,0,3.151,1.166,3.151,2.631
				c0,1.414-1.116,2.332-2.233,2.754c-0.024,0.025,0,0.1,0.025,0.123c0.595,0.994,2.208,3.352,3.101,4.195
				c0.646,0.67,0.968,0.695,1.738,0.793c0.024,0,0,0.373-0.051,0.373c-0.744,0.074-2.381,0-2.902-0.248
				C68.57,45.48,68.297,45.281,68,44.934c-0.695-0.77-1.91-2.781-2.58-3.771c-0.15-0.225-0.273-0.299-0.571-0.348
				c-0.224-0.025-0.571-0.025-0.819-0.025c-0.049,0-0.074,0.098-0.074,0.123c0,0.994,0.025,2.656,0.074,3.326
				c0.049,0.744,0.199,0.867,0.546,0.992c0.224,0.074,0.546,0.125,0.993,0.174c0.074,0.049,0.023,0.348-0.025,0.398
				c-0.372,0-1.414-0.076-2.605-0.076c-1.291,0-2.109,0.076-2.457,0.076c-0.049-0.025-0.049-0.375,0-0.398
				c0.373-0.049,0.895-0.1,1.068-0.148c0.422-0.1,0.595-0.322,0.645-0.992c0.024-0.471,0.024-2.756,0.024-3.699
				c0-1.438,0.024-3.82-0.024-4.416c-0.025-0.471-0.223-0.596-0.547-0.693c-0.247-0.051-0.693-0.15-1.066-0.176
				C60.506,35.23,60.53,34.908,60.605,34.883z M64.006,35.777c-0.025,0.545-0.051,2.877-0.051,4.316c0,0.1,0.025,0.148,0.123,0.148
				c0.397,0.025,1.514,0.025,1.961-0.074c0.645-0.174,1.291-0.693,1.291-2.135c0-1.611-0.818-2.555-2.631-2.555
				c-0.174,0-0.422,0.023-0.57,0.074C64.054,35.578,64.006,35.701,64.006,35.777z"/>
			<path fill="#FFFFFF" d="M71.425,34.861c0.321,0,1.514,0.072,2.308,0.072c0.397,0,0.992,0,1.166-0.023
				c0.05,0.148,0.174,0.373,0.621,0.943c1.861,2.355,5.409,6.6,6.204,7.518c0.023,0.025,0.048-0.023,0.073-0.049
				c0-2.307-0.05-5.781-0.123-6.924c-0.025-0.521-0.225-0.893-0.745-0.992c-0.247-0.074-0.423-0.1-0.919-0.15
				c-0.023-0.072-0.023-0.346,0-0.395c0.447,0,1.168,0.072,2.109,0.072c0.571,0,1.663-0.072,1.861-0.072
				c0.025,0.049,0.025,0.322,0,0.371c-0.297,0.051-0.67,0.1-0.869,0.174c-0.447,0.125-0.52,0.471-0.545,0.893
				c-0.1,1.342-0.125,4.963-0.125,7.172c0,0.795,0.025,1.812,0.051,2.357c-0.373-0.025-0.969,0-1.314,0.025
				c-0.771-1.117-6.255-7.967-7.072-8.957c-0.025-0.025-0.051-0.025-0.051,0c-0.023,1.785,0,6.229,0.025,7.223
				c0.05,0.818,0.273,0.943,0.645,1.117c0.249,0.098,0.77,0.174,1.117,0.197c0.074,0.025,0.05,0.348,0,0.398
				c-0.348,0-1.414-0.076-2.309-0.076c-0.867,0-1.611,0.076-1.984,0.076c-0.074-0.051-0.074-0.373,0-0.398
				c0.248-0.023,0.72-0.074,1.092-0.197c0.422-0.148,0.496-0.521,0.546-1.068c0.075-0.793,0.148-3.85,0.148-7.646
				c0-0.322-0.099-0.594-0.373-0.816c-0.321-0.273-0.644-0.373-1.562-0.449C71.375,35.209,71.375,34.91,71.425,34.861z"/>
		</g>
		<g>
			<path fill="#FFFFFF" d="M4.95,48.516c0.095,0,0.308,0.018,0.543,0.018c0.325,0,0.49-0.018,0.572-0.018
				c0.006,0.012,0.012,0.082,0,0.094l-0.206,0.043c-0.041,0.012-0.065,0.053-0.048,0.117c0.042,0.201,0.479,1.574,0.543,1.746
				c0.011,0,0.011,0.006,0.011,0c0.065-0.148,0.212-0.588,0.402-1.197c0.076-0.252,0.142-0.436,0.188-0.648
				c0.047,0.006,0.183,0.006,0.236,0c0.018,0.07,0.052,0.17,0.124,0.379c0.141,0.383,0.513,1.344,0.572,1.484
				c0.013,0,0.013,0.006,0.018,0c0.059-0.141,0.449-1.373,0.508-1.639c0.029-0.148,0-0.213-0.094-0.236
				c-0.071-0.018-0.142-0.037-0.248-0.049c-0.018-0.016-0.006-0.088,0.011-0.094c0.042,0,0.29,0.018,0.502,0.018
				c0.223,0,0.4-0.018,0.454-0.018c0.018,0.012,0.018,0.078,0.005,0.094l-0.17,0.037C8.75,48.686,8.685,48.74,8.578,49.02
				c-0.1,0.264-0.371,1.078-0.542,1.592c-0.065,0.211-0.101,0.33-0.148,0.512c-0.053-0.006-0.206-0.006-0.253,0
				c-0.177-0.529-0.526-1.408-0.69-1.834H6.927c-0.147,0.453-0.466,1.387-0.601,1.834c-0.042-0.006-0.195-0.006-0.254,0
				c-0.029-0.135-0.095-0.348-0.16-0.564c-0.17-0.549-0.377-1.229-0.524-1.635c-0.072-0.207-0.13-0.254-0.243-0.277
				c-0.064-0.018-0.105-0.025-0.2-0.037C4.933,48.594,4.939,48.527,4.95,48.516z"/>
			<path fill="#FFFFFF" d="M10.206,50.67c0.177-0.385,0.661-1.576,0.767-1.906c0.03-0.078,0.059-0.188,0.071-0.236
				c0.005,0,0.047,0.006,0.147,0.006c0.094,0,0.13-0.006,0.148-0.006c0.006,0.035,0.041,0.131,0.071,0.213
				c0.094,0.279,0.577,1.646,0.719,1.953c0.118,0.26,0.159,0.283,0.455,0.324c0.006,0.012,0,0.082-0.012,0.094
				c-0.088,0-0.307-0.018-0.519-0.018c-0.278,0-0.489,0.018-0.609,0.018c-0.011-0.012-0.011-0.082,0-0.094
				c0.077-0.006,0.143-0.018,0.202-0.035c0.076-0.023,0.076-0.076,0.064-0.129c-0.054-0.195-0.189-0.545-0.272-0.756
				c0,0-0.023-0.018-0.028-0.018c-0.036-0.006-0.148-0.006-0.384-0.006c-0.271,0-0.318,0-0.36,0.006
				c-0.029,0-0.047,0.023-0.047,0.035c-0.083,0.219-0.236,0.566-0.253,0.686c-0.012,0.064-0.012,0.146,0.112,0.176
				c0.053,0.018,0.118,0.029,0.212,0.041c0.006,0.012,0,0.076-0.011,0.094c-0.095,0-0.349-0.018-0.537-0.018
				c-0.213,0-0.349,0.018-0.437,0.018c-0.013-0.012-0.013-0.082,0-0.094C10.005,50.977,10.07,50.959,10.206,50.67z M10.713,49.873
				c0,0.02,0.006,0.023,0.018,0.031c0.036,0.006,0.046,0.006,0.259,0.006c0.105,0,0.295,0,0.354-0.006c0,0,0.018-0.012,0.012-0.031
				c-0.1-0.295-0.236-0.701-0.307-0.883h-0.018L10.713,49.873z"/>
			<path fill="#FFFFFF" d="M14.381,50.93c0.106,0.082,0.271,0.123,0.418,0.123c0.261,0,0.491-0.135,0.491-0.441
				c0-0.244-0.113-0.402-0.579-0.643c-0.431-0.23-0.637-0.432-0.637-0.803c0-0.467,0.425-0.709,0.886-0.709
				c0.194,0,0.294,0.018,0.401,0.029c0.094,0.012,0.207,0.029,0.248,0.029c-0.025,0.131-0.059,0.402-0.072,0.627
				c-0.012,0.012-0.082,0.018-0.088,0c-0.019-0.26-0.077-0.391-0.171-0.467c-0.089-0.072-0.225-0.105-0.384-0.105
				c-0.301,0-0.448,0.205-0.448,0.432c0,0.223,0.118,0.363,0.289,0.463c0.2,0.119,0.36,0.203,0.536,0.303
				c0.219,0.125,0.426,0.307,0.426,0.631c0,0.414-0.373,0.771-0.973,0.771c-0.243,0-0.561-0.076-0.649-0.129
				c-0.035-0.059-0.088-0.508-0.095-0.654c0.007-0.012,0.071-0.029,0.089-0.023C14.145,50.658,14.251,50.84,14.381,50.93z"/>
			<path fill="#FFFFFF" d="M17.211,48.516c0.118,0,0.366,0.018,0.566,0.018c0.243,0,0.513-0.018,0.595-0.018
				c0.018,0,0.012,0.082,0,0.094l-0.211,0.037c-0.082,0.018-0.125,0.059-0.13,0.189c-0.011,0.146-0.005,0.424-0.005,0.812
				c0,0.012,0.011,0.025,0.024,0.029c0.017,0,0.171,0.006,0.66,0.006c0.372,0,0.566,0,0.642-0.006c0.02,0,0.031-0.01,0.031-0.029
				c0-0.217-0.005-0.666-0.011-0.812c-0.007-0.125-0.054-0.172-0.143-0.195c-0.059-0.012-0.146-0.025-0.224-0.031
				c-0.012-0.012-0.012-0.082,0-0.094c0.118,0,0.3,0.018,0.56,0.018c0.319,0,0.52-0.018,0.609-0.018
				c0.016,0.012,0.016,0.082,0,0.094c-0.09,0.012-0.172,0.02-0.213,0.037c-0.1,0.029-0.135,0.047-0.142,0.201
				c-0.006,0.188-0.011,0.43-0.011,0.961c0,0.348,0.005,0.814,0.018,0.949c0.005,0.125,0.035,0.189,0.123,0.219
				c0.077,0.023,0.13,0.029,0.254,0.041c0.013,0.006,0.013,0.082-0.005,0.094c-0.136,0-0.343-0.018-0.626-0.018
				c-0.225,0-0.419,0.012-0.536,0.018c-0.012-0.012-0.012-0.088,0-0.094c0.075-0.012,0.164-0.018,0.217-0.035
				c0.095-0.029,0.119-0.094,0.125-0.211c0.005-0.125,0.005-0.621,0.005-0.875c0-0.018-0.011-0.029-0.023-0.029
				c-0.064-0.004-0.377-0.004-0.625-0.004c-0.318,0-0.654-0.008-0.689,0.004c-0.013,0-0.018,0.02-0.018,0.025
				c0,0.223,0,0.707,0.005,0.818c0.013,0.148,0.024,0.225,0.124,0.26c0.053,0.018,0.113,0.029,0.248,0.047
				c0.013,0.012,0.013,0.088-0.012,0.094c-0.188-0.006-0.365-0.018-0.601-0.018c-0.325,0-0.49,0.018-0.602,0.018
				c-0.013-0.012-0.018-0.082,0-0.094c0.087-0.006,0.2-0.023,0.253-0.041c0.118-0.035,0.131-0.082,0.148-0.283
				c0.01-0.135,0.01-0.549,0.01-0.914c0-0.402,0-0.867-0.005-0.949c-0.012-0.113-0.059-0.154-0.13-0.178
				c-0.077-0.023-0.147-0.031-0.254-0.043C17.206,48.594,17.206,48.533,17.211,48.516z"/>
			<path fill="#FFFFFF" d="M21.695,48.516c0.1,0,0.358,0.018,0.571,0.018c0.2,0,0.472-0.018,0.584-0.018
				c0.018,0.006,0.018,0.082,0,0.094c-0.064,0.006-0.171,0.025-0.212,0.037c-0.087,0.023-0.117,0.076-0.123,0.219
				c-0.013,0.166-0.013,0.555-0.013,0.92c0,0.447,0.006,0.818,0.013,0.967c0.011,0.131,0.028,0.189,0.129,0.225
				c0.053,0.018,0.16,0.035,0.253,0.047c0.013,0.012,0.007,0.076,0,0.088c-0.088,0-0.372-0.018-0.607-0.018
				c-0.254,0-0.418,0.018-0.607,0.018c-0.011-0.012-0.018-0.076,0-0.088c0.077-0.012,0.189-0.023,0.242-0.041
				c0.1-0.035,0.128-0.076,0.142-0.199c0.012-0.131,0.012-0.715,0.012-1.1c0-0.342,0.005-0.641-0.006-0.836
				c-0.006-0.113-0.036-0.172-0.125-0.195c-0.053-0.018-0.147-0.031-0.253-0.043C21.683,48.598,21.688,48.521,21.695,48.516z"/>
			<path fill="#FFFFFF" d="M24.324,48.516c0.078,0,0.36,0.018,0.549,0.018c0.094,0,0.235,0,0.276-0.006
				c0.013,0.035,0.041,0.088,0.148,0.225c0.441,0.561,1.286,1.57,1.474,1.787c0.006,0.008,0.011-0.006,0.018-0.012
				c0-0.547-0.012-1.373-0.029-1.645c-0.006-0.125-0.053-0.213-0.177-0.236c-0.059-0.018-0.1-0.025-0.219-0.037
				c-0.005-0.016-0.005-0.082,0-0.094c0.106,0,0.278,0.018,0.502,0.018c0.136,0,0.395-0.018,0.442-0.018
				c0.006,0.012,0.006,0.078,0,0.088c-0.07,0.012-0.159,0.025-0.206,0.043c-0.106,0.029-0.125,0.111-0.13,0.211
				c-0.023,0.32-0.028,1.182-0.028,1.705c0,0.189,0.005,0.432,0.011,0.561c-0.088-0.006-0.23,0-0.312,0.006
				c-0.183-0.264-1.487-1.893-1.682-2.127c-0.006-0.008-0.012-0.008-0.012,0c-0.005,0.422,0,1.467,0.006,1.703
				c0.012,0.195,0.064,0.225,0.153,0.266c0.059,0.023,0.182,0.041,0.265,0.047c0.018,0.006,0.012,0.082,0,0.094
				c-0.083,0-0.336-0.018-0.549-0.018c-0.205,0-0.382,0.018-0.472,0.018c-0.017-0.012-0.017-0.088,0-0.094
				c0.06-0.006,0.172-0.018,0.261-0.047c0.1-0.035,0.118-0.123,0.129-0.254c0.018-0.189,0.035-0.902,0.035-1.805
				c0-0.076-0.023-0.143-0.088-0.195c-0.076-0.064-0.154-0.088-0.372-0.107C24.312,48.598,24.312,48.527,24.324,48.516z"/>
			<path fill="#FFFFFF" d="M31.296,51.029c-0.13,0.029-0.578,0.141-0.962,0.141c-0.95,0-1.469-0.482-1.469-1.367
				c0-0.543,0.266-0.979,0.732-1.188c0.241-0.111,0.513-0.158,0.885-0.158c0.154,0,0.377,0.023,0.501,0.035
				c0.124,0.018,0.23,0.029,0.295,0.023c-0.036,0.166-0.071,0.479-0.078,0.691c0,0.012-0.07,0.023-0.088,0.012
				c-0.046-0.318-0.095-0.443-0.248-0.533c-0.135-0.082-0.324-0.109-0.542-0.109c-0.643,0-0.979,0.473-0.979,1.191
				c0,0.771,0.389,1.279,1.108,1.279c0.112,0,0.202-0.023,0.254-0.059c0.041-0.035,0.071-0.088,0.077-0.141
				c0.012-0.131,0.018-0.367,0.012-0.504c-0.005-0.158-0.053-0.188-0.159-0.211l-0.231-0.035c-0.012-0.018-0.006-0.076,0.006-0.082
				c0.148,0,0.413,0.012,0.607,0.012c0.202,0,0.356-0.012,0.449-0.012c0.012,0.006,0.018,0.076,0,0.088l-0.153,0.029
				c-0.082,0.035-0.093,0.064-0.1,0.225c-0.006,0.141-0.012,0.383,0,0.482c0.012,0.072,0.018,0.084,0.089,0.113
				C31.32,50.965,31.32,51.018,31.296,51.029z"/>
			<path fill="#FFFFFF" d="M33.631,50.982c0.124-0.023,0.165-0.094,0.171-0.295c0.012-0.184,0.019-1.316,0.019-1.982
				c0-0.012-0.019-0.029-0.031-0.029c-0.076-0.006-0.407,0-0.495,0.006c-0.094,0.004-0.165,0.059-0.218,0.154
				c-0.053,0.094-0.106,0.23-0.171,0.4c-0.012,0-0.083-0.012-0.088-0.023c0.035-0.17,0.07-0.555,0.082-0.732
				c0-0.006,0.012-0.012,0.024-0.006c0.111,0.047,0.225,0.053,0.324,0.053h1.628c0.141,0,0.235,0.006,0.377-0.047
				c0.006,0,0.018,0.006,0.018,0.018c-0.042,0.148-0.065,0.525-0.082,0.744c-0.012,0.012-0.095,0.018-0.095,0
				c-0.017-0.17-0.053-0.307-0.082-0.385c-0.048-0.117-0.113-0.158-0.208-0.164c-0.153-0.012-0.454-0.018-0.542-0.012
				c-0.012,0.004-0.019,0.018-0.019,0.035c0,0.596,0,1.859,0.019,2.078c0.006,0.088,0.041,0.158,0.135,0.188
				c0.064,0.018,0.142,0.023,0.253,0.041c0.018,0.006,0.012,0.082-0.006,0.088c-0.124,0-0.383-0.018-0.655-0.018
				c-0.301,0-0.53,0.023-0.643,0.018c-0.018-0.012-0.018-0.082,0-0.088C33.484,51.006,33.573,51,33.631,50.982z"/>
			<path fill="#FFFFFF" d="M37.069,50.789c-0.253-0.273-0.36-0.65-0.36-0.992c0-0.307,0.083-0.578,0.236-0.789
				c0.248-0.344,0.714-0.557,1.162-0.557c0.874,0,1.322,0.627,1.322,1.316c0,0.348-0.077,0.613-0.26,0.855
				c-0.247,0.359-0.661,0.547-1.126,0.547C37.63,51.17,37.293,51.018,37.069,50.789z M38.957,49.896
				c0-0.631-0.283-1.311-0.973-1.311c-0.583,0-0.791,0.545-0.791,1.104c0,0.613,0.288,1.334,0.997,1.334
				C38.781,51.023,38.957,50.463,38.957,49.896z"/>
			<path fill="#FFFFFF" d="M40.944,48.516c0.077,0,0.36,0.018,0.549,0.018c0.095,0,0.236,0,0.277-0.006
				c0.011,0.035,0.041,0.088,0.147,0.225c0.443,0.561,1.287,1.57,1.475,1.787c0.006,0.008,0.012-0.006,0.018-0.012
				c0-0.547-0.012-1.373-0.029-1.645c-0.006-0.125-0.053-0.213-0.177-0.236c-0.06-0.018-0.101-0.025-0.219-0.037
				c-0.006-0.016-0.006-0.082,0-0.094c0.107,0,0.278,0.018,0.501,0.018c0.135,0,0.395-0.018,0.443-0.018
				c0.006,0.012,0.006,0.078,0,0.088c-0.071,0.012-0.16,0.025-0.207,0.043c-0.106,0.029-0.123,0.111-0.13,0.211
				c-0.023,0.32-0.029,1.182-0.029,1.705c0,0.189,0.006,0.432,0.012,0.561c-0.089-0.006-0.23,0-0.312,0.006
				c-0.183-0.264-1.487-1.893-1.682-2.127c-0.006-0.008-0.012-0.008-0.012,0c-0.005,0.422,0,1.467,0.006,1.703
				c0.013,0.195,0.065,0.225,0.154,0.266c0.059,0.023,0.182,0.041,0.265,0.047c0.018,0.006,0.011,0.082,0,0.094
				c-0.083,0-0.336-0.018-0.549-0.018c-0.207,0-0.383,0.018-0.472,0.018c-0.017-0.012-0.017-0.088,0-0.094
				c0.059-0.006,0.172-0.018,0.26-0.047c0.1-0.035,0.118-0.123,0.129-0.254c0.018-0.189,0.036-0.902,0.036-1.805
				c0-0.076-0.023-0.143-0.088-0.195c-0.077-0.064-0.154-0.088-0.371-0.107C40.932,48.598,40.932,48.527,40.944,48.516z"/>
			<path fill="#FFFFFF" d="M47.455,48.516c0.076,0,0.235,0.018,0.555,0.018c0.307,0,0.466-0.018,0.578-0.018
				c0.018,0.018,0.012,0.07,0,0.094c-0.082,0.006-0.154,0.02-0.207,0.037c-0.076,0.029-0.112,0.064-0.117,0.23
				c-0.013,0.336-0.013,0.996-0.006,1.221c0.018,0.289,0.059,0.436,0.135,0.555c0.13,0.201,0.373,0.301,0.637,0.301
				c0.359,0,0.662-0.105,0.715-0.75c0.023-0.311,0.023-0.844,0.012-1.273c-0.006-0.248-0.088-0.266-0.207-0.289
				c-0.053-0.012-0.111-0.025-0.193-0.031c-0.025-0.016-0.02-0.082,0-0.094c0.07,0,0.271,0.018,0.518,0.018
				c0.178,0,0.36-0.018,0.426-0.018c0.018,0.012,0.018,0.07,0,0.094c-0.072,0.006-0.154,0.025-0.195,0.037
				c-0.1,0.029-0.136,0.082-0.142,0.318c-0.018,0.945-0.029,1.203-0.095,1.475c-0.117,0.572-0.561,0.73-1.02,0.73
				c-0.632,0-0.956-0.275-1.016-0.771c-0.023-0.26-0.012-1.256-0.023-1.527c-0.006-0.113-0.018-0.195-0.123-0.219
				c-0.054-0.012-0.178-0.037-0.23-0.043C47.438,48.594,47.438,48.521,47.455,48.516z"/>
			<path fill="#FFFFFF" d="M51.631,48.516c0.076,0,0.359,0.018,0.549,0.018c0.095,0,0.236,0,0.277-0.006
				c0.012,0.035,0.041,0.088,0.146,0.225c0.442,0.561,1.286,1.57,1.475,1.787c0.007,0.008,0.012-0.006,0.018-0.012
				c0-0.547-0.011-1.373-0.029-1.645c-0.006-0.125-0.053-0.213-0.177-0.236c-0.058-0.018-0.101-0.025-0.218-0.037
				c-0.006-0.016-0.006-0.082,0-0.094c0.105,0,0.277,0.018,0.502,0.018c0.135,0,0.395-0.018,0.441-0.018
				c0.007,0.012,0.007,0.078,0,0.088c-0.07,0.012-0.16,0.025-0.206,0.043c-0.106,0.029-0.124,0.111-0.13,0.211
				c-0.023,0.32-0.029,1.182-0.029,1.705c0,0.189,0.006,0.432,0.012,0.561c-0.088-0.006-0.23,0-0.312,0.006
				c-0.184-0.264-1.486-1.893-1.682-2.127c-0.006-0.008-0.012-0.008-0.012,0c-0.006,0.422,0,1.467,0.006,1.703
				c0.013,0.195,0.064,0.225,0.154,0.266c0.059,0.023,0.182,0.041,0.264,0.047c0.018,0.006,0.013,0.082,0,0.094
				c-0.082,0-0.335-0.018-0.548-0.018c-0.206,0-0.384,0.018-0.472,0.018c-0.018-0.012-0.018-0.088,0-0.094
				c0.059-0.006,0.171-0.018,0.26-0.047c0.1-0.035,0.118-0.123,0.129-0.254c0.019-0.189,0.036-0.902,0.036-1.805
				c0-0.076-0.023-0.143-0.089-0.195c-0.076-0.064-0.153-0.088-0.371-0.107C51.619,48.598,51.619,48.527,51.631,48.516z"/>
			<path fill="#FFFFFF" d="M56.066,48.516c0.1,0,0.359,0.018,0.571,0.018c0.2,0,0.472-0.018,0.585-0.018
				c0.017,0.006,0.017,0.082,0,0.094c-0.065,0.006-0.172,0.025-0.213,0.037c-0.089,0.023-0.117,0.076-0.124,0.219
				c-0.012,0.166-0.012,0.555-0.012,0.92c0,0.447,0.005,0.818,0.012,0.967c0.011,0.131,0.03,0.189,0.13,0.225
				c0.053,0.018,0.159,0.035,0.254,0.047c0.012,0.012,0.005,0.076,0,0.088c-0.089,0-0.373-0.018-0.607-0.018
				c-0.254,0-0.419,0.018-0.607,0.018c-0.013-0.012-0.02-0.076,0-0.088c0.076-0.012,0.188-0.023,0.24-0.041
				c0.102-0.035,0.131-0.076,0.143-0.199c0.011-0.131,0.011-0.715,0.011-1.1c0-0.342,0.007-0.641-0.005-0.836
				c-0.006-0.113-0.035-0.172-0.125-0.195c-0.053-0.018-0.146-0.031-0.252-0.043C56.055,48.598,56.059,48.521,56.066,48.516z"/>
			<path fill="#FFFFFF" d="M58.566,48.516c0.094,0,0.342,0.018,0.548,0.018c0.282,0,0.473-0.018,0.561-0.018
				c0.007,0.012,0.007,0.082,0,0.094c-0.081,0.012-0.153,0.031-0.2,0.049c-0.035,0.012-0.065,0.053-0.047,0.105
				c0.088,0.271,0.625,1.623,0.702,1.799c0.011,0,0.011,0.008,0.018,0c0.065-0.135,0.548-1.309,0.66-1.662
				c0.048-0.148,0.035-0.207-0.083-0.242c-0.07-0.018-0.159-0.037-0.258-0.049c-0.02-0.016-0.007-0.088,0.012-0.094
				c0.094,0,0.322,0.018,0.512,0.018c0.23,0,0.384-0.018,0.443-0.018c0.006,0.012,0.006,0.082,0,0.094
				c-0.06,0.012-0.124,0.025-0.172,0.043c-0.117,0.029-0.188,0.088-0.301,0.367c-0.123,0.27-0.471,1.09-0.672,1.609
				c-0.082,0.207-0.137,0.342-0.188,0.5c-0.048-0.012-0.194-0.012-0.249,0c-0.035-0.146-0.105-0.354-0.182-0.57
				c-0.213-0.549-0.525-1.328-0.649-1.635c-0.089-0.207-0.153-0.26-0.272-0.283c-0.064-0.02-0.123-0.025-0.188-0.031
				C58.549,48.594,58.549,48.527,58.566,48.516z"/>
			<path fill="#FFFFFF" d="M62.76,48.516c0.1,0,0.337,0.018,0.566,0.018h0.885c0.241,0,0.383-0.006,0.466-0.023
				c0,0,0.019,0.012,0.019,0.018c-0.042,0.131-0.084,0.42-0.09,0.609c-0.012,0.012-0.076,0.012-0.088,0
				c-0.012-0.094-0.029-0.213-0.053-0.271c-0.029-0.119-0.06-0.172-0.219-0.184c-0.105-0.012-0.572-0.006-0.631,0
				c-0.029,0.004-0.047,0.059-0.047,0.076c-0.006,0.291-0.013,0.814-0.006,0.91c0,0.016,0.011,0.029,0.023,0.029
				c0.193,0,0.502,0,0.625-0.008c0.129-0.006,0.152-0.088,0.183-0.17c0.019-0.055,0.03-0.113,0.036-0.166
				c0.012-0.006,0.088-0.006,0.094,0.006c-0.006,0.061-0.023,0.309-0.023,0.42c0,0.084,0.012,0.318,0.012,0.418
				c-0.018,0.018-0.082,0.018-0.1,0c-0.013-0.082-0.025-0.135-0.036-0.176c-0.023-0.064-0.054-0.135-0.165-0.148
				c-0.13-0.01-0.455-0.01-0.632-0.01c-0.006,0-0.017,0.029-0.017,0.033c0,0.107,0,0.572,0.006,0.826
				c0.005,0.137,0.07,0.189,0.1,0.195c0.102,0.023,0.289,0.029,0.566,0.029c0.241,0,0.295-0.059,0.359-0.125
				c0.096-0.105,0.178-0.26,0.242-0.424c0.018-0.006,0.083,0.01,0.089,0.035c-0.013,0.1-0.123,0.484-0.207,0.631
				c-0.011,0.029-0.046,0.041-0.159,0.041c-0.225,0-0.595-0.012-1.227-0.012c-0.271,0-0.483,0.018-0.668,0.018
				c-0.01-0.012-0.01-0.082,0-0.094c0.113-0.006,0.248-0.023,0.326-0.047c0.1-0.029,0.136-0.064,0.141-0.236
				c0.007-0.152,0.007-0.561,0.007-1.045c0-0.4-0.007-0.748-0.007-0.824c-0.011-0.137-0.034-0.18-0.135-0.213
				c-0.06-0.018-0.16-0.037-0.236-0.043C62.742,48.598,62.742,48.521,62.76,48.516z"/>
			<path fill="#FFFFFF" d="M66.334,48.516c0.1,0,0.378,0.018,0.549,0.018h0.736c0.52,0,0.75,0.279,0.75,0.627
				c0,0.336-0.266,0.555-0.531,0.654c-0.006,0.006,0,0.023,0.006,0.029c0.142,0.236,0.525,0.797,0.737,0.996
				c0.153,0.16,0.229,0.166,0.413,0.189c0.006,0,0,0.088-0.012,0.088c-0.178,0.018-0.566,0-0.69-0.059
				c-0.065-0.023-0.13-0.07-0.201-0.152c-0.165-0.184-0.454-0.662-0.612-0.896c-0.036-0.053-0.066-0.072-0.137-0.082
				c-0.053-0.008-0.135-0.008-0.193-0.008c-0.014,0-0.02,0.025-0.02,0.031c0,0.234,0.006,0.631,0.02,0.789
				c0.011,0.178,0.045,0.207,0.129,0.236c0.053,0.018,0.13,0.029,0.236,0.041c0.018,0.012,0.006,0.082-0.006,0.094
				c-0.09,0-0.336-0.018-0.619-0.018c-0.307,0-0.502,0.018-0.584,0.018c-0.014-0.006-0.014-0.088,0-0.094
				c0.087-0.012,0.211-0.023,0.254-0.035c0.1-0.023,0.141-0.076,0.153-0.234c0.005-0.113,0.005-0.656,0.005-0.881
				c0-0.344,0.006-0.908-0.005-1.051c-0.007-0.111-0.054-0.141-0.13-0.164c-0.06-0.012-0.166-0.037-0.254-0.043
				C66.31,48.598,66.316,48.521,66.334,48.516z M67.142,48.729c-0.007,0.129-0.013,0.684-0.013,1.027
				c0,0.023,0.006,0.035,0.03,0.035c0.095,0.006,0.36,0.006,0.466-0.018c0.154-0.041,0.307-0.166,0.307-0.508
				c0-0.383-0.193-0.607-0.625-0.607c-0.041,0-0.1,0.006-0.135,0.018C67.152,48.682,67.142,48.711,67.142,48.729z"/>
			<path fill="#FFFFFF" d="M70.721,50.93c0.107,0.082,0.271,0.123,0.421,0.123c0.259,0,0.487-0.135,0.487-0.441
				c0-0.244-0.111-0.402-0.577-0.643c-0.431-0.23-0.637-0.432-0.637-0.803c0-0.467,0.425-0.709,0.886-0.709
				c0.193,0,0.294,0.018,0.4,0.029c0.094,0.012,0.207,0.029,0.248,0.029c-0.023,0.131-0.059,0.402-0.072,0.627
				c-0.012,0.012-0.082,0.018-0.088,0c-0.018-0.26-0.076-0.391-0.171-0.467c-0.088-0.072-0.224-0.105-0.384-0.105
				c-0.301,0-0.447,0.205-0.447,0.432c0,0.223,0.117,0.363,0.288,0.463c0.2,0.119,0.36,0.203,0.537,0.303
				c0.219,0.125,0.425,0.307,0.425,0.631c0,0.414-0.373,0.771-0.973,0.771c-0.243,0-0.561-0.076-0.649-0.129
				c-0.036-0.059-0.089-0.508-0.095-0.654c0.006-0.012,0.07-0.029,0.088-0.023C70.486,50.658,70.592,50.84,70.721,50.93z"/>
			<path fill="#FFFFFF" d="M73.553,48.516c0.1,0,0.359,0.018,0.572,0.018c0.199,0,0.473-0.018,0.582-0.018
				c0.02,0.006,0.02,0.082,0,0.094c-0.063,0.006-0.17,0.025-0.211,0.037c-0.089,0.023-0.119,0.076-0.125,0.219
				c-0.011,0.166-0.011,0.555-0.011,0.92c0,0.447,0.006,0.818,0.011,0.967c0.014,0.131,0.03,0.189,0.131,0.225
				c0.052,0.018,0.159,0.035,0.254,0.047c0.012,0.012,0.006,0.076,0,0.088c-0.09,0-0.371-0.018-0.607-0.018
				c-0.254,0-0.42,0.018-0.608,0.018c-0.012-0.012-0.017-0.076,0-0.088c0.077-0.012,0.188-0.023,0.242-0.041
				c0.101-0.035,0.13-0.076,0.142-0.199c0.012-0.131,0.012-0.715,0.012-1.1c0-0.342,0.006-0.641-0.006-0.836
				c-0.006-0.113-0.035-0.172-0.124-0.195c-0.054-0.018-0.147-0.031-0.253-0.043C73.54,48.598,73.547,48.521,73.553,48.516z"/>
			<path fill="#FFFFFF" d="M76.979,50.982c0.123-0.023,0.164-0.094,0.172-0.295c0.012-0.184,0.018-1.316,0.018-1.982
				c0-0.012-0.018-0.029-0.03-0.029c-0.077-0.006-0.406,0-0.495,0.006c-0.094,0.004-0.164,0.059-0.219,0.154
				c-0.053,0.094-0.106,0.23-0.17,0.4c-0.012,0-0.084-0.012-0.09-0.023c0.035-0.17,0.072-0.555,0.084-0.732
				c0-0.006,0.01-0.012,0.023-0.006c0.111,0.047,0.223,0.053,0.323,0.053h1.63c0.141,0,0.236,0.006,0.377-0.047
				c0.006,0,0.018,0.006,0.018,0.018c-0.041,0.148-0.064,0.525-0.083,0.744c-0.011,0.012-0.095,0.018-0.095,0
				c-0.018-0.17-0.053-0.307-0.082-0.385c-0.048-0.117-0.113-0.158-0.207-0.164c-0.153-0.012-0.453-0.018-0.543-0.012
				c-0.01,0.004-0.017,0.018-0.017,0.035c0,0.596,0,1.859,0.017,2.078c0.007,0.088,0.043,0.158,0.137,0.188
				c0.064,0.018,0.141,0.023,0.253,0.041c0.019,0.006,0.013,0.082-0.006,0.088c-0.124,0-0.384-0.018-0.654-0.018
				c-0.302,0-0.53,0.023-0.643,0.018c-0.019-0.012-0.019-0.082,0-0.088C76.832,51.006,76.92,51,76.979,50.982z"/>
			<path fill="#FFFFFF" d="M80.965,50.977c0.113-0.023,0.125-0.082,0.137-0.242l0.012-0.578c0-0.059-0.012-0.152-0.035-0.205
				c-0.101-0.219-0.354-0.662-0.514-0.949c-0.178-0.32-0.242-0.344-0.354-0.367c-0.059-0.014-0.1-0.02-0.184-0.025
				c-0.018-0.012-0.018-0.082,0-0.094c0.16,0,0.33,0.018,0.578,0.018c0.154,0,0.443-0.018,0.496-0.018
				c0.018,0.006,0.023,0.078,0.006,0.094l-0.159,0.025c-0.06,0.018-0.083,0.047-0.036,0.141c0.125,0.244,0.467,0.873,0.549,1.01
				h0.018c0.148-0.248,0.42-0.736,0.52-0.955c0.054-0.113,0.023-0.166-0.088-0.189c-0.06-0.012-0.125-0.025-0.201-0.031
				c-0.012-0.016-0.012-0.094,0.006-0.1c0.111,0.006,0.337,0.023,0.479,0.023c0.158,0,0.283-0.012,0.418-0.018
				c0.023,0.006,0.023,0.078,0,0.088l-0.165,0.031c-0.142,0.035-0.194,0.129-0.276,0.26c-0.178,0.277-0.525,0.861-0.604,1.033
				c-0.018,0.041-0.029,0.105-0.029,0.141c0,0.199-0.006,0.43,0,0.637c0.006,0.172,0.025,0.254,0.16,0.277l0.229,0.035
				c0.019,0.012,0.006,0.088-0.005,0.094c-0.083,0-0.385-0.018-0.59-0.018c-0.213,0-0.484,0.018-0.621,0.018
				c-0.023-0.012-0.017-0.088-0.01-0.094L80.965,50.977z"/>
		</g>
		<g>
			<g>
				<path fill="#FFFFFF" d="M69.055,17.611c0,0,5.092,8.48,12.83,11.506C81.885,29.117,71.158,31.246,69.055,17.611z"/>
				<path fill="#FFFFFF" d="M24.183,26.227c0,0,11.337-2.555,22.673-16.242C46.856,9.984,38.031,30.352,24.183,26.227z"/>
				<path fill="#FFFFFF" d="M67.627,15.848c0,0,0.726,3.102-3.738,5.697c0,0-5.22-11.678-12.59-12.715c0,0,5.832,0,11.82,6.854
					C65.156,18.016,66.381,17.402,67.627,15.848z"/>
			</g>
			<g>
				<path fill="#FFFFFF" d="M22.264,26.67c0,0,4.988,1.674,9.431,0.688c8.867-1.967,12.553-5.121,18.292-6.109
					c5.736-0.982,7.083-0.562,13.902,0.297c0,0-1.492-0.264-5.218,0.377c-10.021,1.721-15.327,6.49-23.873,7.117
					C26.25,29.66,22.264,26.67,22.264,26.67z"/>
				<path fill="#FFFFFF" d="M24.183,28.482c0,0,9.501,2.881,14.666,1.734c10.305-2.289,14.59-5.955,21.257-7.102
					c6.669-1.145,9.276-0.535,17.2,0.467c0,0-2.779-0.428-7.105,0.318c-11.646,1.998-17.814,7.541-27.748,8.266
					C32.521,32.891,24.183,28.482,24.183,28.482z"/>
			</g>
		</g>
	</g>
</g>
</svg>
