<svg xmlns="http://www.w3.org/2000/svg" viewBox="0 0 444.15 358.9"><title>screens icon</title><g id="screens-icon" data-name="screens-icon"><path d="M482.27,428.92V344.87H454.56V219.12H88.07v290H239.23c-3.58,20.09-22,42.13-48.87,59.94H523.21V428.92Z" transform="translate(-83.57 -214.62)" style="fill:#f3ffff"/></g><g id="Layer_1" data-name="Layer 1"><polyline points="222.94 294.45 4.5 294.45 4.5 4.5 370.99 4.5 370.99 130.25" style="fill:none;stroke:#85e3d0;stroke-miterlimit:10;stroke-width:9px"/><polyline points="398.71 214.31 398.71 130.25 222.94 130.25 222.94 354.4 357.55 354.4" style="fill:none;stroke:#85e3d0;stroke-miterlimit:10;stroke-width:9px"/><rect x="357.55" y="214.31" width="82.1" height="140.09" style="fill:none;stroke:#85e3d0;stroke-miterlimit:10;stroke-width:9px"/><polyline points="222.94 269.46 29.7 269.46 29.7 29.5 345.71 29.5 345.71 130.25" style="fill:none;stroke:#85e3d0;stroke-miterlimit:10;stroke-width:9px"/><path d="M306.5,569H190.36c26.83-17.81,45.29-39.85,48.87-59.94" transform="translate(-83.57 -214.62)" style="fill:none;stroke:#85e3d0;stroke-linejoin:round;stroke-width:9px"/><path d="M138.41,269.12c22.64,0,22.64,24.48,45.29,24.48s22.64-24.48,45.28-24.48,22.64,24.48,45.28,24.48,22.64-24.48,45.29-24.48,22.64,24.48,45.28,24.48c14.62,0,19.8-10.19,27.73-17.43" transform="translate(-83.57 -214.62)" style="fill:none;stroke:#85e3d0;stroke-miterlimit:10;stroke-width:9px"/><path d="M138.41,306.12c22.64,0,22.64,24.48,45.29,24.48s22.64-24.48,45.28-24.48,22.64,24.48,45.28,24.48a24.32,24.32,0,0,0,17.33-6.84" transform="translate(-83.57 -214.62)" style="fill:none;stroke:#85e3d0;stroke-miterlimit:10;stroke-width:9px"/><path d="M138.41,343.12c22.64,0,22.64,24.48,45.29,24.48,13.11,0,18.63-8.21,25.35-15.12" transform="translate(-83.57 -214.62)" style="fill:none;stroke:#85e3d0;stroke-miterlimit:10;stroke-width:9px"/><path d="M333.34,376.44c22.64,0,22.64,24.48,45.28,24.48s22.64-24.48,45.28-24.48c14.75,0,19.89,10.38,27.94,17.63" transform="translate(-83.57 -214.62)" style="fill:none;stroke:#85e3d0;stroke-miterlimit:10;stroke-width:9px"/><path d="M333.34,413.44c22.64,0,22.64,24.48,45.28,24.48,13.57,0,19-8.8,26.06-15.84" transform="translate(-83.57 -214.62)" style="fill:none;stroke:#85e3d0;stroke-miterlimit:10;stroke-width:9px"/><path d="M499.21,457.22a24.11,24.11,0,0,1-33.94.15" transform="translate(-83.57 -214.62)" style="fill:none;stroke:#85e3d0;stroke-linejoin:round;stroke-width:9px"/><path d="M499.21,494.22a24.11,24.11,0,0,1-33.94.15" transform="translate(-83.57 -214.62)" style="fill:none;stroke:#85e3d0;stroke-linejoin:round;stroke-width:9px"/><circle cx="323.3" cy="320.59" r="13.7" style="fill:#85e3d0"/><circle cx="398.6" cy="324.43" r="7.66" style="fill:#85e3d0"/></g></svg>